<?xml version="1.0" encoding="UTF-8" standalone="no"?>
<!-- Created with Inkscape (http://www.inkscape.org/) -->

<svg
   xmlns:osb="http://www.openswatchbook.org/uri/2009/osb"
   xmlns:dc="http://purl.org/dc/elements/1.1/"
   xmlns:cc="http://creativecommons.org/ns#"
   xmlns:rdf="http://www.w3.org/1999/02/22-rdf-syntax-ns#"
   xmlns:svg="http://www.w3.org/2000/svg"
   xmlns="http://www.w3.org/2000/svg"
   xmlns:xlink="http://www.w3.org/1999/xlink"
   xmlns:sodipodi="http://sodipodi.sourceforge.net/DTD/sodipodi-0.dtd"
   xmlns:inkscape="http://www.inkscape.org/namespaces/inkscape"
   width="900"
   height="600"
   viewBox="0 0 238.12499 158.75"
   version="1.1"
   id="svg3719"
   inkscape:version="0.92.2 5c3e80d, 2017-08-06"
   sodipodi:docname="travelvibe.svg">
  <defs
     id="defs3713">
    <linearGradient
       inkscape:collect="always"
       id="linearGradient973">
      <stop
         style="stop-color:#080808;stop-opacity:1;"
         offset="0"
         id="stop969" />
      <stop
         style="stop-color:#080808;stop-opacity:0;"
         offset="1"
         id="stop971" />
    </linearGradient>
    <linearGradient
       inkscape:collect="always"
       id="linearGradient857">
      <stop
         style="stop-color:#1e6060;stop-opacity:1;"
         offset="0"
         id="stop853" />
      <stop
         style="stop-color:#1e6060;stop-opacity:0;"
         offset="1"
         id="stop855" />
    </linearGradient>
    <marker
       inkscape:stockid="Arrow1Lstart"
       orient="auto"
       refY="0.0"
       refX="0.0"
       id="Arrow1Lstart"
       style="overflow:visible"
       inkscape:isstock="true">
      <path
         id="path4701"
         d="M 0.0,0.0 L 5.0,-5.0 L -12.5,0.0 L 5.0,5.0 L 0.0,0.0 z "
         style="fill-rule:evenodd;stroke:#374548;stroke-width:1pt;stroke-opacity:1;fill:#37c8ab;fill-opacity:1"
         transform="scale(0.8) translate(12.5,0)" />
    </marker>
    <linearGradient
       id="linearGradient4548"
       osb:paint="gradient">
      <stop
         style="stop-color:#000000;stop-opacity:1;"
         offset="0"
         id="stop4544" />
      <stop
         style="stop-color:#000000;stop-opacity:0;"
         offset="1"
         id="stop4546" />
    </linearGradient>
    <linearGradient
       inkscape:collect="always"
       xlink:href="#linearGradient857"
       id="linearGradient859"
       x1="99.880447"
       y1="244.84756"
       x2="120.94602"
       y2="232.86876"
       gradientUnits="userSpaceOnUse" />
    <radialGradient
       inkscape:collect="always"
       xlink:href="#linearGradient973"
       id="radialGradient975"
       cx="103.08765"
       cy="216.62654"
       fx="103.08765"
       fy="216.62654"
       r="75.880501"
       gradientTransform="matrix(1.0625,0,0,0.97532893,-7.6910126,3.72196)"
       gradientUnits="userSpaceOnUse" />
  </defs>
  <sodipodi:namedview
     id="base"
     pagecolor="#ffffff"
     bordercolor="#666666"
     borderopacity="1.0"
     inkscape:pageopacity="0.0"
     inkscape:pageshadow="2"
     inkscape:zoom="1.06"
     inkscape:cx="118.86792"
     inkscape:cy="299.44373"
     inkscape:document-units="mm"
     inkscape:current-layer="layer1"
     showgrid="false"
     units="px"
     showguides="false"
     inkscape:window-width="1440"
     inkscape:window-height="793"
     inkscape:window-x="0"
     inkscape:window-y="1"
     inkscape:window-maximized="1"
     inkscape:measure-start="268.571,595.714"
     inkscape:measure-end="272.857,195.714"
     inkscape:snap-text-baseline="true"
     inkscape:snap-others="false"
     inkscape:snap-global="false" />
  <metadata
     id="metadata3716">
    <rdf:RDF>
      <cc:Work
         rdf:about="">
        <dc:format>image/svg+xml</dc:format>
        <dc:type
           rdf:resource="http://purl.org/dc/dcmitype/StillImage" />
        <dc:title />
      </cc:Work>
    </rdf:RDF>
  </metadata>
  <g
     inkscape:groupmode="layer"
     id="layer2"
     inkscape:label="Capa 2" />
  <g
     inkscape:label="Capa 1"
     inkscape:groupmode="layer"
     id="layer1"
     transform="translate(0,-138.24998)"
     style="opacity:0.98999999">
    <circle
       style="fill:none;fill-opacity:1;stroke:none;stroke-width:0.70730197;stroke-miterlimit:4;stroke-dasharray:0.70730199, 1.41460398000000009;stroke-dashoffset:0;stroke-opacity:1"
       id="path4586-0"
       cx="95.374359"
       cy="225.89241"
       r="35.365101" />
    <ellipse
       style="display:none;fill:#ebf20e;fill-opacity:1;stroke:#899ca2;stroke-width:0.52555496;stroke-miterlimit:4.4000001;stroke-dasharray:0.52555494, 1.05110989;stroke-dashoffset:0;stroke-opacity:1"
       id="path4586-0-8"
       cx="94.962822"
       cy="226.14253"
       rx="26.195675"
       ry="26.360083" />
    <flowRoot
       xml:space="preserve"
       id="flowRoot4630"
       style="font-style:normal;font-weight:normal;font-size:40px;line-height:1.25;font-family:'Bangla MN';letter-spacing:0px;word-spacing:0px;fill:#000000;fill-opacity:1;stroke:none;-inkscape-font-specification:'Bangla MN';font-stretch:normal;font-variant:normal;"
       transform="matrix(0.26458333,0,0,0.26458333,0,138.24998)"><flowRegion
         id="flowRegion4632"
         style="-inkscape-font-specification:'Bangla MN';font-family:'Bangla MN';font-weight:normal;font-style:normal;font-stretch:normal;font-variant:normal;"><rect
           id="rect4634"
           width="377.14285"
           height="64.285713"
           x="160"
           y="112.85714"
           style="-inkscape-font-specification:'Bangla MN';font-family:'Bangla MN';font-weight:normal;font-style:normal;font-stretch:normal;font-variant:normal;" /></flowRegion><flowPara
         id="flowPara4636" /></flowRoot>    <path
       style="opacity:1;fill:none;fill-opacity:1;stroke:none;stroke-width:1.48958671;stroke-miterlimit:4;stroke-dasharray:none;stroke-dashoffset:0;stroke-opacity:0.99215686"
       d="M 13.078326,141.43059 V 294.82153 H 196.94626 V 141.43059 Z"
       id="rect4698"
       inkscape:connector-curvature="0" />
    <flowRoot
       xml:space="preserve"
       id="flowRoot4556"
       style="font-style:normal;font-weight:normal;font-size:96px;line-height:1.25;font-family:'Bangla MN';letter-spacing:0px;word-spacing:0px;fill:#fbfbfb;fill-opacity:1;stroke:none;-inkscape-font-specification:'Bangla MN';font-stretch:normal;font-variant:normal;"
       transform="matrix(0.26458333,0,0,0.26458333,0,138.24998)"><flowRegion
         id="flowRegion4558"
         style="font-size:96px;fill:#fbfbfb;fill-opacity:1;-inkscape-font-specification:'Bangla MN';font-family:'Bangla MN';font-weight:normal;font-style:normal;font-stretch:normal;font-variant:normal;"><rect
           id="rect4560"
           width="300.94339"
           height="70.754715"
           x="210.37737"
           y="362.26416"
           style="font-size:96px;fill:#fbfbfb;fill-opacity:1;-inkscape-font-specification:'Bangla MN';font-family:'Bangla MN';font-weight:normal;font-style:normal;font-stretch:normal;font-variant:normal;" /></flowRegion><flowPara
         id="flowPara4562">INKSCAPE</flowPara></flowRoot>    <path
       style="opacity:1;fill:none;fill-opacity:1;fill-rule:evenodd;stroke:none;stroke-width:0.30899999;stroke-miterlimit:4;stroke-dasharray:none;stroke-opacity:1;paint-order:markers fill stroke"
       id="path869"
       d="m 62.034268,178.46303 c -0.108344,2.41976 -0.115798,4.84339 -0.135946,7.26526 -0.0053,2.56014 0.0013,5.11614 0.24193,7.66619 0.18084,1.27523 0.301294,2.55668 0.486257,3.83154 0.07354,0.31564 0.06047,0.64967 0.1203,0.9666 0.0316,0.1674 0.131715,0.33698 0.182976,0.49995 0.01246,-0.0892 0.06732,0.34183 0.09043,0.25474 0.008,-0.0302 -0.02125,-0.0643 -0.0096,-0.0934 0.01045,-0.026 0.05617,-0.002 0.08369,-0.007 0,0 -3.068873,2.12478 -3.068873,2.12478 v 0 c -0.216676,-0.10918 -0.312606,-0.26911 -0.34461,-0.50391 -0.05272,-0.19306 -0.154151,-0.38601 -0.193749,-0.58005 -0.06424,-0.31479 -0.0073,-0.6549 -0.08117,-0.96931 -0.139467,-1.30279 -0.225903,-2.6084 -0.368215,-3.91086 -0.178546,-2.58425 -0.176472,-5.16744 -0.126283,-7.75707 -0.01992,-2.37567 -0.02598,-4.75329 -0.135945,-7.12673 0,0 3.258788,-1.66043 3.258788,-1.66043 z"
       inkscape:connector-curvature="0" />
    <path
       style="opacity:1;fill:none;fill-opacity:1;fill-rule:evenodd;stroke:none;stroke-width:0.30899999;stroke-miterlimit:4;stroke-dasharray:none;stroke-opacity:1;paint-order:markers fill stroke"
       id="path871"
       d="m 51.098301,178.09789 c 1.151224,0.0366 2.303389,0.0376 3.455104,0.0412 1.391042,0.002 2.782073,-0.006 4.173106,-0.01 1.301533,-0.005 2.603037,0.008 3.904554,0.003 1.29123,0.001 2.582437,-0.002 3.873664,-0.004 0.994662,0.0106 1.996551,-0.0239 2.97442,-0.21758 0.763391,-0.18081 1.47307,-0.50553 2.185736,-0.82382 0.653153,-0.34269 0.02916,-0.006 0.660778,-0.37485 0.103587,-0.0605 0.41847,-0.23488 0.314587,-0.17486 -0.944036,0.5454 -3.8114,2.11629 -2.835084,1.63103 1.198607,-0.59573 2.481931,-1.36263 3.690516,-2.08207 -0.164951,0.12414 0.607666,-0.30012 0.460815,-0.21537 -6.98577,4.03173 -0.367105,0.0948 0.73403,-0.42396 -6.718149,3.85451 -1.18836,0.66897 0.301393,-0.13076 0.04657,-0.025 0.107262,0.008 0.158511,-0.005 0.100981,-0.0255 0.240023,-0.10547 0.326629,-0.16556 0.230317,-0.0318 0.408736,-0.15977 0.626454,-0.25704 0.172257,-0.0611 0.337153,-0.0509 0.518787,-0.0493 0.09599,-1.1e-4 0.05034,-1.2e-4 0.136953,0 0,0 -3.013146,2.19853 -3.013146,2.19853 v 0 c -0.07845,0.003 -0.03701,0.001 -0.124304,0.007 -0.153985,0.0199 -0.294719,0.087 -0.432006,0.15385 -0.210664,0.0948 -0.418077,0.16643 -0.626388,0.25935 -0.121378,0.0302 -0.249545,0.0593 -0.368173,0.0952 -0.04184,0.0127 -0.157311,0.076 -0.119499,0.0541 0.843322,-0.48958 7.680653,-4.4145 -0.274482,0.15373 -1.112356,0.6147 -1.012161,0.56067 2.832619,-1.64795 0.06436,-0.037 -0.120812,0.0867 -0.185063,0.12385 -1.308002,0.75668 -2.492266,1.51254 -3.811606,2.14947 -0.0932,0.0453 -0.36867,0.18886 -0.279596,0.1359 0.949992,-0.56479 3.829511,-2.20833 2.86321,-1.67192 -1.469626,0.81583 -2.894558,1.76951 -4.418341,2.50234 -0.723048,0.31288 -1.454274,0.61339 -2.235935,0.74664 -0.985594,0.12876 -1.978554,0.17263 -2.972308,0.14283 -1.287129,-0.003 -2.57424,-0.006 -3.861374,-0.004 -1.304428,-0.005 -2.608842,0.009 -3.913283,0.003 -1.382284,-0.004 -2.764565,-0.0115 -4.146854,-0.01 -1.189493,0.004 -2.379358,0.006 -3.568401,0.0412 0,0 2.993977,-2.17525 2.993977,-2.17525 z"
       inkscape:connector-curvature="0" />
    <path
       style="opacity:1;fill:none;fill-opacity:1;fill-rule:evenodd;stroke:none;stroke-width:0.30899999;stroke-miterlimit:4;stroke-dasharray:none;stroke-opacity:1;paint-order:markers fill stroke"
       id="path873"
       d="m 74.034707,182.0191 c -0.06137,1.25956 -0.05761,2.52142 -0.07189,3.78219 -0.01111,1.63666 -0.0016,3.27328 0.01691,4.90983 0.01045,0.9683 0.02238,1.93658 0.03531,2.90485 0.0033,0.51994 0.01468,1.0398 0.0163,1.55974 0.0046,0.22964 0.0092,0.4603 0.01,0.68943 0.0758,0.15369 0.152078,0.30681 0.204333,0.47035 0.04887,0.13196 0.0087,0.28805 0.07598,0.40981 0.09934,0.11965 0.147437,0.2664 0.190627,0.41351 0,0 -3.285307,1.76963 -3.285307,1.76963 v 0 c -0.01923,-0.12301 -0.05196,-0.22579 -0.131921,-0.32482 -0.09416,-0.16528 -0.138285,-0.29833 -0.125643,-0.48917 -0.03042,-0.15435 -0.103114,-0.29393 -0.179001,-0.43076 -0.116102,-0.25814 -0.03642,-0.55278 -0.04972,-0.8313 0.0016,-0.52548 0.01302,-1.05088 0.0163,-1.57636 0.01291,-0.98027 0.02487,-1.96054 0.03531,-2.94084 0.01844,-1.64229 0.02806,-3.28464 0.01691,-4.92704 -0.01416,-1.23635 -0.0096,-2.47388 -0.07189,-3.70894 0,0 3.297404,-1.68011 3.297404,-1.68011 z"
       inkscape:connector-curvature="0" />
    <path
       style="opacity:1;fill:none;fill-opacity:1;fill-rule:evenodd;stroke:none;stroke-width:0.30899999;stroke-miterlimit:4;stroke-dasharray:none;stroke-opacity:1;paint-order:markers fill stroke"
       id="path875"
       d="m 71.732512,182.37399 c 0.03173,-0.30283 0.05831,-0.7136 0.357129,-0.88954 1.116405,-0.65732 2.250425,-1.28424 3.375637,-1.92636 0.932058,-0.1774 1.884412,-0.16793 2.826435,-0.28434 1.596702,-0.1202 3.191497,-0.25147 4.791091,-0.32882 0.850281,0.0111 1.715696,-0.13826 2.564661,-0.031 0.447805,0.0565 0.656633,0.14611 1.078334,0.28375 0.790911,0.25797 1.472538,0.71594 2.108382,1.23965 0.523036,0.48142 0.874498,0.98371 1.095719,1.65608 0.305348,0.68629 0.418148,1.4257 0.491908,2.16671 0.05755,0.82051 0.104844,1.64144 -0.01714,2.45707 -0.170185,0.65299 -0.471218,1.27854 -0.905558,1.79601 -1.100626,1.16318 -2.684324,1.73082 -4.030432,2.53504 -0.96974,0.57937 3.94625,-2.19846 2.938264,-1.68853 -1.159743,0.5867 -2.26273,1.27942 -3.394096,1.91913 -0.226393,0.1574 -0.497591,0.15117 -0.742074,0.26563 -0.07099,0.0332 -0.132093,0.0867 -0.205314,0.11463 -0.144426,0.0552 -0.300003,0.0767 -0.445564,0.12883 -0.532275,0.20672 -1.097669,0.21795 -1.66235,0.22765 -0.623639,-0.005 -1.247281,-0.0121 -1.87094,-0.0153 -0.468993,-0.002 -0.937983,0.003 -1.40697,0.004 -0.413999,-0.0241 -0.838504,-0.27705 -1.209813,-0.46748 -0.461179,-0.18465 -0.824058,-0.52654 -1.244078,-0.78432 -0.377442,-0.28883 -0.732518,-0.60826 -1.057069,-0.95652 -0.17731,-0.0988 -0.197194,-0.31917 -0.317619,-0.45989 -0.01611,-0.0188 -0.05066,-0.014 -0.06667,-0.0329 -0.06729,-0.0795 -0.1094,-0.17731 -0.166322,-0.26454 -0.889807,-1.15979 1.991127,-2.60139 3.251494,-2.10143 0.343204,0.38722 0.61469,0.82174 0.847764,1.28148 0.387742,0.57341 0.660866,1.21152 1.021107,1.80042 0.330978,0.88322 0.796493,1.70379 1.197604,2.55456 0.420045,0.89653 0.900314,1.76313 1.450541,2.58601 0.214914,0.3435 0.503487,0.63106 0.750189,0.9494 0.200462,0.25867 0.307105,0.42372 0.586412,0.59277 0.387462,0.27808 0.83575,0.46285 1.273054,0.65015 0.40242,0.21567 0.852913,0.33487 1.304451,0.40574 0.430609,0.0629 0.866783,0.0631 1.300956,0.0664 0.490691,0.0145 0.996008,-0.0493 1.442765,-0.25695 0.157792,-0.0992 0.358146,-0.0676 0.522872,-0.1415 0.07279,-0.0327 0.121225,-0.10662 0.192834,-0.1418 0.205386,-0.10091 0.470853,-0.11944 0.691716,-0.17572 0.314846,0.0124 0.55698,-0.25626 0.862526,-0.26812 0.181766,-0.0758 0.441124,0.0571 0.505526,-0.12177 0.110657,-0.0275 0.245123,0.10955 0.344326,0.0907 0,0 -3.055493,2.14466 -3.055493,2.14466 v 0 c -0.07747,-0.0286 -0.142989,0.0179 -0.208042,0.0786 -0.186671,-0.0332 -0.354711,0.009 -0.533701,0.067 -0.261578,0.14572 -0.562422,0.18938 -0.8504,0.25666 -0.467696,0.12174 -0.897266,0.35401 -1.369023,0.46906 -0.50387,0.12788 -1.01159,0.19901 -1.533089,0.16313 -0.446664,-0.009 -0.895143,-0.0249 -1.333306,-0.12091 -0.469612,-0.1017 -0.925103,-0.25294 -1.355826,-0.46841 -0.457205,-0.1955 -0.904975,-0.43358 -1.309878,-0.72163 -0.548555,-0.44515 -0.923819,-1.13249 -1.364975,-1.68256 -0.546608,-0.84618 -1.032362,-1.72927 -1.467096,-2.63815 -0.383577,-0.84282 -0.883425,-1.63157 -1.200835,-2.50637 -0.358667,-0.59765 -0.67164,-1.22202 -1.051457,-1.80734 -0.186912,-0.33785 -0.387665,-0.79707 -0.725183,-1.00673 -1.445707,-0.23515 2.587596,-3.21527 3.027902,-1.86178 0.133006,0.24178 0.324826,0.47081 0.481113,0.69868 0.322707,0.31412 0.635416,0.63993 1.013553,0.88838 0.393874,0.27064 0.773086,0.56605 1.222528,0.74358 0.359921,0.16547 0.711743,0.36298 1.121701,0.32557 0.461428,0.003 0.922801,0.0105 1.384208,0.0152 0.623025,0.006 1.246563,0.0175 1.869368,-0.002 0.552747,-0.0276 1.088872,-0.10662 1.604431,-0.32076 0.462965,-0.15142 0.919348,-0.33472 1.362271,-0.5366 -7.545512,4.38136 0.124087,-0.0756 0.441602,-0.24404 0.990682,-0.5254 -1.935535,1.133 -2.904553,1.69736 -0.394287,0.22963 1.06776,-0.63086 0.684924,-0.50035 0.130487,-0.13957 0.28325,-0.25975 0.397883,-0.41261 0.268997,-0.35869 0.410234,-0.81597 0.610465,-1.2116 0.171749,-0.78026 0.112385,-1.57501 0.06422,-2.36787 -0.06533,-0.71504 -0.165192,-1.42592 -0.466561,-2.08599 -0.2018,-0.59319 -0.50933,-1.06306 -0.984355,-1.48191 -0.604708,-0.48704 -1.254988,-0.90033 -1.999515,-1.14263 -1.165815,-0.33021 -2.32674,-0.22908 -3.525665,-0.18474 -1.598518,0.0726 -3.193468,0.19763 -4.785641,0.35755 -0.946512,0.11271 -1.948627,0.09 -2.842678,0.44714 0.981845,-0.57312 1.968482,-1.13811 2.94553,-1.71937 0.05684,-0.0338 -0.122992,0.0488 -0.183269,0.0761 -0.216231,0.0977 -0.262962,0.25467 -0.309012,0.47748 0,0 -3.303842,1.68339 -3.303842,1.68339 z"
       inkscape:connector-curvature="0" />
    <path
       style="opacity:1;fill:none;fill-opacity:1;fill-rule:evenodd;stroke:none;stroke-width:0.30899999;stroke-miterlimit:4;stroke-dasharray:none;stroke-opacity:1;paint-order:markers fill stroke"
       id="path877"
       d="m 100.49304,179.02382 c -0.0306,0.76008 -0.0225,1.52077 -0.0285,2.28131 -0.006,0.9826 -0.011,1.96516 -0.003,2.94777 -0.008,0.99151 -5.3e-4,1.98304 -0.003,2.97458 -0.009,0.93159 0.0481,1.86493 -0.0481,2.7926 -0.0495,0.80679 -0.19293,1.59667 -0.31648,2.39348 -0.139176,0.56357 -0.286496,1.12181 -0.470656,1.67211 -0.149008,0.53262 -0.395542,1.03027 -0.638133,1.52498 -0.24807,0.52412 -0.481219,1.05682 -0.704278,1.59223 -0.281879,0.54358 -0.512932,1.11261 -0.805141,1.65063 -0.234534,0.41425 -0.467987,0.83062 -0.657836,1.26739 -0.05342,0.22769 -0.244562,0.38215 -0.310576,0.5918 -0.341381,1.22433 -3.499027,2.88773 -3.32659,1.52126 0,0 3.33084,-1.67399 3.33084,-1.67399 v 0 c 0.0051,1.32214 -3.364289,3.21044 -3.353806,1.78631 0.0087,-0.0953 0.01172,-0.31187 0.04908,-0.38605 0.0164,-0.0326 0.07206,-0.0231 0.09789,-0.0488 0.07037,-0.0701 0.07568,-0.19059 0.146603,-0.25944 0.09709,-0.18653 0.153215,-0.39921 0.259601,-0.57955 0.04209,-0.0713 0.110604,-0.12524 0.150019,-0.19809 0.515347,-0.95249 -0.320501,0.39354 0.262183,-0.51966 0.09302,-0.16732 0.206709,-0.32336 0.289968,-0.49574 0.178945,-0.3705 0.291055,-0.77825 0.54185,-1.11495 0.20251,-0.54976 0.456928,-1.07995 0.678728,-1.62197 0.254262,-0.46919 0.485466,-0.95627 0.664491,-1.45874 0.138779,-0.55307 -0.01818,0.004 0.177032,-0.50952 0.139922,-0.36793 0.145008,-0.77618 0.331457,-1.12935 0.127458,-0.79951 0.308028,-1.58559 0.351446,-2.39776 0.134612,-0.91012 0.03699,-1.83596 0.07128,-2.75383 -0.0021,-0.99063 0.0052,-1.98125 -0.0027,-2.97185 0.008,-0.98162 0.0027,-1.96319 -0.0029,-2.9448 -0.006,-0.75086 0.0024,-1.50187 -0.02853,-2.25225 0,0 3.297408,-1.68011 3.297408,-1.68011 z"
       inkscape:connector-curvature="0" />
    <path
       style="opacity:1;fill:none;fill-opacity:1;fill-rule:evenodd;stroke:none;stroke-width:0.30899999;stroke-miterlimit:4;stroke-dasharray:none;stroke-opacity:1;paint-order:markers fill stroke"
       id="path879"
       d="m 102.99233,179.49153 c -0.0378,0.71113 -0.0226,1.42359 -0.0242,2.13537 0.002,0.72995 -0.001,1.45989 0.003,2.18984 0.0209,0.71844 -0.056,1.44468 0.0443,2.15784 0.0552,0.604 0.21295,1.18184 0.34073,1.77139 0.14542,0.4175 0.24733,0.86246 0.46363,1.25134 0.21472,0.48184 0.51157,0.92239 0.79859,1.36409 0.37745,0.70571 0.69007,1.44121 1.02637,2.16673 0.33653,0.71218 0.67413,1.42392 1.03887,2.12275 0.21932,0.50366 0.47241,0.9862 0.8141,1.41808 0.21842,0.3711 0.51413,0.67678 0.80981,0.98737 0.28108,0.23983 0.53692,0.52166 0.8753,0.68149 0.13915,0.0674 0.25521,0.16647 0.36901,0.26874 0,0 -3.15915,1.96189 -3.15915,1.96189 v 0 c -0.0971,-0.0847 -0.20039,-0.15792 -0.31796,-0.21327 -0.33627,-0.22602 -0.63058,-0.5041 -0.92613,-0.77964 -0.29215,-0.32431 -0.60034,-0.63433 -0.81193,-1.02108 -0.35316,-0.45226 -0.61709,-0.95927 -0.83266,-1.48975 -0.35402,-0.70958 -0.68827,-1.4282 -1.03076,-2.14297 -0.32963,-0.70911 -0.63386,-1.42818 -1.02088,-2.10874 -0.29538,-0.4479 -0.61551,-0.88575 -0.83463,-1.3775 -0.2296,-0.42889 -0.34975,-0.8952 -0.50539,-1.35445 -0.0534,-0.28634 -0.151883,-0.5584 -0.210393,-0.84116 -0.06425,-0.31051 -0.03472,-0.64222 -0.116795,-0.95107 -0.139382,-0.72765 -0.04639,-1.47242 -0.07512,-2.21049 0.0042,-0.73091 0.0011,-1.46181 0.0028,-2.19273 -0.0016,-0.70353 0.01402,-1.40782 -0.02421,-2.11068 0,0 3.303838,-1.68339 3.303838,-1.68339 z"
       inkscape:connector-curvature="0" />
    <path
       style="opacity:1;fill:none;fill-opacity:1;fill-rule:evenodd;stroke:none;stroke-width:0.30899999;stroke-miterlimit:4;stroke-dasharray:none;stroke-opacity:1;paint-order:markers fill stroke"
       id="path881"
       d="m 98.247074,191.32493 c 0.58042,0.0145 1.161013,0.0106 1.741533,0.0153 0.715213,-0.002 1.430413,-5.3e-4 2.145623,1.2e-4 0.66109,0.002 1.32212,-0.002 1.98318,-0.007 0.33008,-0.009 0.66043,-0.003 0.99046,-0.0102 0.0616,-0.0353 0.19275,0.0337 0.24993,-0.001 0.0266,-0.0163 0.0659,-0.10047 0.0385,-0.0854 -3.33591,1.83554 -4.32225,2.01841 -3.08908,1.78254 0.62065,-1.20234 2.33663,-1.30232 3.46844,-1.995 0,0 -2.93293,2.31531 -2.93293,2.31531 v 0 c -1.46585,0.36275 4.30915,-1.751 2.9079,-1.75414 -0.5346,1.36207 -2.27703,2.03731 -3.64856,1.92186 -0.32069,-0.007 -0.64174,-0.001 -0.96248,-0.0102 -0.65424,-0.005 -1.308448,-0.01 -1.96272,-0.007 -0.715325,5.3e-4 -1.430629,0.002 -2.145956,1.2e-4 -0.594569,0.005 -1.189213,0.001 -1.783694,0.0153 0,0 2.999824,-2.1795 2.999824,-2.1795 z"
       inkscape:connector-curvature="0" />
    <path
       style="opacity:1;fill:none;fill-opacity:1;fill-rule:evenodd;stroke:none;stroke-width:0.30899999;stroke-miterlimit:4;stroke-dasharray:none;stroke-opacity:1;paint-order:markers fill stroke"
       id="path883"
       d="m 111.72535,183.01753 c -0.0451,1.05533 -0.0512,2.11182 -0.0529,3.16795 -0.0191,1.11869 0.0226,2.2371 0.0263,3.35556 0.007,0.64494 0.0132,1.28975 0.0156,1.93473 -0.0378,0.52147 0.13409,0.99588 0.36602,1.45283 0.24548,0.37407 0.54356,0.70267 0.80672,1.06645 0.37156,0.47457 0.79293,0.92192 1.3041,1.24526 0.51902,0.40254 1.01394,0.82852 1.58552,1.15535 0.36342,0.24061 0.76793,0.54758 1.1957,0.65843 0.25373,0.14022 0.51425,0.22566 0.80042,0.25774 0.14672,0.016 0.29454,0.008 0.44156,5.3e-4 0.12845,-0.002 0.25677,-0.003 0.3852,-0.003 1.26359,-0.0139 0.14475,-0.0113 -3.10132,1.73576 -0.0655,0.0352 0.10873,-0.10345 0.1729,-0.14107 1.09783,-0.6436 2.23291,-1.22674 3.29744,-1.92405 0.96476,-0.63194 -1.99845,1.1518 -2.99768,1.72769 0.76686,-0.55118 1.4567,-1.18776 2.10447,-1.87275 0.80003,-0.81526 1.42524,-1.76377 1.94174,-2.77686 0.48035,-1.09119 0.67295,-2.27598 0.93481,-3.43209 0.23931,-1.13844 0.4176,-2.28863 0.62005,-3.43395 0.16962,-0.81419 0.34697,-1.62682 0.50026,-2.44433 0.10594,-0.52132 0.22501,-1.03985 0.28886,-1.56849 0.0418,-0.30417 0.038,-0.61149 0.0433,-0.91776 -0.002,-0.18615 -0.01,-0.37216 -0.006,-0.55842 -0.0102,-0.1243 -5.3e-4,-0.24837 -0.007,-0.37278 0.005,-0.15749 0.003,-0.31493 0.005,-0.4726 0.003,-0.12791 -0.002,-0.25555 -0.003,-0.38349 0,0 3.32212,-1.69269 3.32212,-1.69269 v 0 c -5.3e-4,0.12881 -0.005,0.25736 -0.003,0.38614 0.002,0.15591 -5.3e-4,0.3116 0.005,0.46732 -0.006,0.12624 0.003,0.25205 -0.006,0.37825 0.005,0.18829 7.9e-4,0.37659 -0.001,0.56481 0.003,0.32208 -0.0118,0.64328 -0.0326,0.96458 -0.075,0.54157 -0.18303,1.07723 -0.32216,1.60623 -0.14846,0.82571 -0.33637,1.64381 -0.52169,2.46157 -0.25777,1.14258 -0.408,2.30946 -0.6451,3.45698 -0.27271,1.17244 -0.45309,2.36976 -0.88247,3.49848 -0.49028,1.04915 -1.10989,2.04229 -1.91914,2.87753 -0.60073,0.69455 -1.24884,1.34148 -1.98679,1.89024 -1.10509,0.65952 -2.27642,1.21898 -3.31528,1.97856 -0.94705,0.69245 2.02273,-1.1892 3.03852,-1.7762 0.0601,-0.0348 -0.11662,0.0757 -0.17727,0.10963 -3.33992,1.86608 -2.03884,1.86047 -3.36202,1.85611 -0.13004,0.001 -0.26004,0.004 -0.39013,0.002 -0.15768,-0.009 -0.31494,-0.0231 -0.46811,-0.0644 -0.28781,-0.074 -0.5501,-0.20518 -0.82084,-0.32481 -0.42588,-0.20726 -0.8411,-0.44552 -1.22191,-0.72761 -0.54259,-0.37198 -1.05458,-0.77903 -1.58047,-1.17322 -0.52303,-0.37547 -0.98756,-0.83561 -1.38437,-1.34253 -0.28218,-0.37474 -0.60672,-0.71357 -0.84173,-1.12215 -0.24149,-0.50537 -0.47481,-1.0314 -0.43859,-1.60487 0.002,-0.65027 0.009,-1.30038 0.0156,-1.95062 0.004,-1.1274 0.0452,-2.25475 0.0263,-3.38237 -0.002,-1.03816 -0.007,-2.07674 -0.0529,-3.11406 0,0 3.2974,-1.68011 3.2974,-1.68011 z"
       inkscape:connector-curvature="0" />
    <path
       style="opacity:1;fill:none;fill-opacity:1;fill-rule:evenodd;stroke:none;stroke-width:0.30899999;stroke-miterlimit:4;stroke-dasharray:none;stroke-opacity:1;paint-order:markers fill stroke"
       id="path885"
       d="m 130.19626,180.77106 c -0.0424,1.13862 -0.0571,2.27817 -0.0688,3.4175 -0.0418,1.7304 0.0132,3.46096 0.002,5.19137 0.0703,1.10457 -0.0605,2.22691 0.0865,3.32502 0.11699,0.5228 0.28414,1.09059 0.67805,1.47541 0.34739,0.37443 0.77284,0.38224 1.25347,0.40781 1.25834,0.0347 2.5175,0.0342 3.77623,0.0476 2.0961,0.0374 4.18396,-0.22929 6.24211,-0.6038 1.57063,-0.26169 3.13802,-0.56544 4.67315,-0.99238 0.71748,-0.24618 1.45818,-0.38726 2.1814,-0.61409 0.18062,-0.0438 0.35282,-0.0925 0.53708,-0.11605 0,0 -2.97142,2.2418 -2.97142,2.2418 v 0 c -0.16356,0.0401 -0.32578,0.0853 -0.48795,0.13078 -0.70103,0.2016 -1.42717,0.30671 -2.11827,0.54689 -1.52493,0.35951 -3.05891,0.6735 -4.60839,0.90807 -2.07785,0.34774 -4.17842,0.58724 -6.28866,0.56397 -1.30683,0.02 -2.61481,0.0559 -3.92156,0.0205 -0.55837,-0.0588 -1.04064,-0.19004 -1.42695,-0.62589 -0.39931,-0.48139 -0.62169,-1.08599 -0.73617,-1.69588 -0.15532,-1.12654 -0.002,-2.27378 -0.0329,-3.40748 -0.011,-1.73119 0.0441,-3.46253 0.002,-5.1937 -0.0116,-1.11595 -0.0259,-2.23215 -0.0688,-3.34735 0,0 3.29741,-1.68012 3.29741,-1.68012 z"
       inkscape:connector-curvature="0" />
    <path
       style="opacity:1;fill:none;fill-opacity:1;fill-rule:evenodd;stroke:none;stroke-width:0.30899999;stroke-miterlimit:4;stroke-dasharray:none;stroke-opacity:1;paint-order:markers fill stroke"
       id="path887"
       d="m 130.97252,179.34592 c 0.88584,0.0298 1.77243,0.0245 2.65863,0.0207 0.89093,-0.003 1.78186,10e-4 2.67275,-0.003 0.74545,-0.0547 1.49032,-0.11248 2.2029,-0.35868 0.0876,-0.0252 0.17391,-0.0556 0.26288,-0.0755 0.0832,-0.0186 0.17092,-0.0154 0.25253,-0.0399 0.20163,-0.0606 0.3706,-0.1978 0.57892,-0.2501 0.0258,-0.015 0.0515,-0.03 0.0773,-0.045 0,0 -2.92352,2.30554 -2.92352,2.30554 v 0 c -0.0273,0.007 -0.0546,0.0142 -0.0819,0.0212 -0.34048,0.1575 -0.70498,0.21939 -1.06535,0.31772 -0.7377,0.17494 -1.49218,0.25453 -2.25023,0.26549 -0.88771,-0.005 -1.77546,3e-5 -2.6632,-0.003 -0.90522,-0.004 -1.81076,-0.008 -2.71564,0.0207 0,0 2.99398,-2.17525 2.99398,-2.17525 z"
       inkscape:connector-curvature="0" />
    <path
       style="opacity:1;fill:none;fill-opacity:1;fill-rule:evenodd;stroke:none;stroke-width:0.30899999;stroke-miterlimit:4;stroke-dasharray:none;stroke-opacity:1;paint-order:markers fill stroke"
       id="path889"
       d="m 132.96937,187.83256 c 0.50652,0.0117 1.01314,0.007 1.51969,0.002 0.24023,-0.005 0.48055,-0.003 0.72068,-0.0104 0.0236,2.2e-4 0.0471,5.3e-4 0.0707,5.3e-4 0,0 -3.01504,2.19055 -3.01504,2.19055 v 0 c -0.0242,2.2e-4 -0.0483,5.3e-4 -0.0725,5.3e-4 -0.23061,-0.007 -0.46144,-0.006 -0.69215,-0.0104 -0.50845,-0.005 -1.01695,-0.009 -1.52537,0.002 0,0 2.99398,-2.17526 2.99398,-2.17526 z"
       inkscape:connector-curvature="0" />
    <path
       style="opacity:1;fill:none;fill-opacity:1;fill-rule:evenodd;stroke:none;stroke-width:0.30899999;stroke-miterlimit:4;stroke-dasharray:none;stroke-opacity:1;paint-order:markers fill stroke"
       id="path895"
       d="m 147.16631,177.05846 c -0.0694,1.28608 -0.0534,2.57468 -0.0574,3.86206 -0.0147,1.64452 -0.0108,3.2891 -0.007,4.93365 0.002,1.30871 0.0201,2.61726 0.0293,3.92591 0.0105,0.79317 0.009,1.58651 0.0269,2.37957 0.0478,0.30919 0.0978,0.67918 0.29439,0.93536 0.24578,0.31564 0.52743,0.58708 0.76005,0.92107 0.3381,0.39022 0.72126,0.75541 1.13461,1.06624 0.42006,0.31255 0.84988,0.60674 1.36802,0.72208 0.40363,0.17919 0.82966,0.22775 1.26517,0.25541 -0.31566,0.33285 1.18887,-0.58393 0.77057,-0.34557 -2.93807,1.67425 -3.88174,2.30779 -2.70144,1.52466 0.69108,-0.46414 1.35048,-0.96153 1.97438,-1.51273 0.74979,-0.67324 1.49923,-1.34709 2.27514,-1.9902 0.43015,-0.42002 0.92248,-0.7805 1.32693,-1.22644 0.10973,-0.20171 0.32663,-0.30464 0.44151,-0.49376 0,0 3.38374,-1.56916 3.38374,-1.56916 v 0 c -0.0892,0.33801 -0.14979,0.39517 -0.42525,0.60977 -0.3715,0.52218 -0.91824,0.86047 -1.36,1.32048 -0.77324,0.64855 -1.54354,1.29793 -2.29209,1.9757 -0.58553,0.5747 -1.21792,1.08559 -1.90737,1.53099 -1.2172,0.9904 -0.28442,0.25051 -3.59381,2.13452 -0.26947,0.1534 -0.58886,0.21087 -0.89402,0.18274 -0.45076,-0.05 -0.88354,-0.14848 -1.30386,-0.32256 -0.52604,-0.20017 -0.9987,-0.47749 -1.4345,-0.83471 -0.43882,-0.3398 -0.84029,-0.73375 -1.20286,-1.15352 -0.23634,-0.32269 -0.53455,-0.58905 -0.7758,-0.90576 -0.23692,-0.33134 -0.3062,-0.76292 -0.37727,-1.15654 0.0177,-0.80219 0.0164,-1.60465 0.0268,-2.40694 0.009,-1.31861 0.0276,-2.63712 0.0293,-3.95579 0.003,-1.64204 0.007,-3.28411 -0.007,-4.92612 -0.004,-1.26787 0.0131,-2.53708 -0.0574,-3.80358 0,0 3.29097,-1.67683 3.29097,-1.67683 z"
       inkscape:connector-curvature="0" />
    <path
       style="opacity:1;fill:none;fill-opacity:1;fill-rule:evenodd;stroke:none;stroke-width:0.30899999;stroke-miterlimit:4;stroke-dasharray:none;stroke-opacity:1;paint-order:markers fill stroke"
       id="path897"
       d="m 51.816474,219.24203 c -0.08959,1.80665 -0.133487,3.61355 -0.03488,5.41984 0.245446,2.60056 0.94814,5.1086 1.855235,7.54721 0.682786,1.75346 1.46192,3.45959 2.493488,5.03603 0.605917,0.99727 1.295617,1.94183 2.161329,2.72832 0.410546,0.32991 0.795877,0.6379 1.318807,0.7517 -0.188388,0.20903 0.802685,-0.37572 0.616736,-0.27148 -0.958082,0.53707 -1.905754,1.09269 -2.866903,1.62426 -0.117382,0.0649 0.222919,-0.14926 0.334499,-0.22371 0.13806,-0.0921 0.276276,-0.18401 0.414415,-0.27602 1.300347,-0.88837 2.603955,-1.77471 3.867975,-2.71432 1.816748,-1.24501 3.419229,-2.73521 4.916072,-4.34204 1.045544,-1.23856 1.994408,-2.58354 2.652776,-4.06917 0.46318,-1.04683 0.865166,-2.11449 1.140502,-3.22556 0.218933,-0.69256 0.298022,-1.41137 0.318866,-2.1336 0.0024,-0.37103 -0.0051,-0.74215 -0.01209,-1.11311 -0.01188,-0.26447 -0.0064,-0.52901 -0.01421,-0.79362 0.0069,-0.29593 0.0031,-0.59194 0.0061,-0.88792 0.0019,-0.37431 0.0064,-0.74857 0.0013,-1.12289 0.006,-0.22833 -0.01288,-0.4567 -0.01064,-0.6849 0.0072,-0.11289 -0.0094,-0.2241 -7.94e-4,-0.33657 -0.03736,-0.21351 0.115978,0.0497 -0.0036,0.0334 -0.01222,-0.002 -0.02962,0.007 -0.03683,-0.004 -0.0437,-0.0607 -0.07167,-0.13121 -0.107506,-0.19681 -0.06944,-0.12414 -0.08789,-0.26325 -0.102134,-0.4023 5.29e-4,-0.12821 -0.09532,-0.24259 -0.148402,-0.37371 -0.06651,-0.0879 -0.123526,-0.27227 -0.142227,-0.44217 0.01767,-0.1466 0.03224,-0.29403 0.0333,-0.44196 0.0104,-0.12867 0.0086,-0.0677 0.0073,-0.18273 0,0 3.320463,-1.68632 3.320463,-1.68632 v 0 c -0.0044,0.11907 -0.0044,0.0561 0.0019,0.18892 -0.01074,0.15367 -0.01125,0.30621 -0.01916,0.45948 -0.08119,0.13913 -0.0044,0.15388 0.05333,0.29677 0.05723,0.16632 0.190156,0.29849 0.212257,0.47342 -0.0028,0.0931 -0.01339,0.18718 0.02498,0.27413 -0.125252,-0.17463 0.284136,0.14291 0.22743,0.31124 0.0094,0.11262 -0.0089,0.22431 -7.94e-4,0.33736 0.0024,0.23182 -0.01651,0.46381 -0.01064,0.69575 -0.0051,0.37393 -5.29e-4,0.7478 0.0011,1.12171 0.003,0.29344 -0.0011,0.58692 0.0066,0.88027 -0.0063,0.26613 7.93e-4,0.53196 -0.003,0.7981 0.0028,0.37884 0.01476,0.75768 0.0038,1.13659 -0.0285,0.75311 -0.115816,1.50569 -0.335526,2.22941 -0.08675,0.33397 -0.152783,0.67373 -0.25546,1.00315 -0.244433,0.78424 -0.601261,1.53438 -0.905629,2.29552 -0.651616,1.5432 -1.619658,2.92954 -2.687053,4.21489 -1.486726,1.6155 -3.05861,3.14241 -4.874075,4.39145 -1.218848,0.93841 -2.493896,1.8014 -3.749812,2.68903 -1.355784,0.92051 -2.582,1.60976 -4.130644,2.48071 -0.156598,0.0881 -0.396808,0.13054 -0.577939,0.11905 -0.07468,-0.005 -0.14645,-0.0308 -0.219676,-0.0463 -0.530937,-0.20124 -0.949934,-0.54499 -1.364115,-0.92768 -0.841685,-0.84715 -1.534417,-1.8146 -2.129893,-2.84914 -0.995966,-1.63095 -1.817532,-3.34221 -2.452309,-5.14714 -0.868141,-2.48526 -1.596956,-5.01794 -1.871573,-7.64695 -0.03592,-0.43829 -0.08582,-0.87565 -0.10778,-1.31486 -0.06664,-1.33274 -0.0035,-2.6724 -0.106241,-4.0044 0,0 3.290969,-1.67684 3.290969,-1.67684 z"
       inkscape:connector-curvature="0" />
    <path
       style="opacity:1;fill:none;fill-opacity:1;fill-rule:evenodd;stroke:none;stroke-width:0.30899999;stroke-miterlimit:4;stroke-dasharray:none;stroke-opacity:1;paint-order:markers fill stroke"
       id="path899"
       d="m 83.017337,222.73652 c -0.0324,1.08547 -0.04907,2.1714 -0.06114,3.25731 -0.0086,1.59442 -0.0099,3.18889 0.006,4.78326 0.01291,1.13955 0.01924,2.27915 0.02233,3.41877 -0.04129,0.91404 0.01757,1.81106 0.155858,2.71254 0.126487,0.60973 0.310055,1.18053 0.656228,1.69884 0.09499,0.2209 0.290097,0.35409 0.417279,0.55226 0.03994,0.0622 0.06146,0.13583 0.105945,0.1949 0.02469,0.0328 0.06498,0.0501 0.09746,0.0752 0.03821,0.0589 0.07642,0.11772 0.114626,0.17658 0.203613,0.12011 0.309041,0.32115 0.498909,0.46296 0.410861,0.45828 -0.0013,0.21999 0.278693,0.20942 0.101976,-0.0268 0.212016,-0.04 0.317979,-0.0369 0.248121,0.003 0.496253,0.007 0.744456,0.009 0.518374,-0.0267 1.018638,0.11313 1.530387,0.17632 0.508677,0.0588 1.020707,0.0673 1.532062,0.0745 0.249271,0.002 0.498342,-0.009 0.747574,-0.006 0.09759,-0.004 0.05323,-0.002 0.133087,-0.005 0,0 -3.017902,2.19511 -3.017902,2.19511 v 0 c -0.07307,-0.003 -0.03235,-0.001 -0.122156,-0.004 -0.244721,0.003 -0.489468,-0.006 -0.733956,-0.0156 -0.514319,-0.0171 -1.028658,-0.0536 -1.539359,-0.11753 -0.505291,-0.0699 -1.007198,-0.16667 -1.520328,-0.12377 -0.254564,0.003 -0.509463,0.006 -0.763603,0.0207 -0.120486,0.0125 -0.252265,0.0121 -0.366133,-0.0308 -0.191151,-0.0719 -0.258131,-0.21686 -0.364702,-0.36571 -0.20647,-0.16713 -0.348853,-0.39877 -0.550275,-0.57272 -0.229595,-0.34106 -0.495758,-0.65552 -0.707983,-1.00945 -0.386268,-0.56336 -0.5647,-1.19556 -0.71692,-1.85728 -0.06467,-0.53423 -0.02455,-0.2581 -0.123463,-0.82792 -0.07855,-0.64417 -0.0056,-1.29576 -0.02918,-1.94215 0.0031,-1.14721 0.0095,-2.2944 0.02233,-3.44154 0.01582,-1.59641 0.01471,-3.19293 0.006,-4.78939 -0.01199,-1.06515 -0.02844,-2.13032 -0.06114,-3.195 0,0 3.290967,-1.67684 3.290967,-1.67684 z"
       inkscape:connector-curvature="0" />
    <path
       style="opacity:1;fill:none;fill-opacity:1;fill-rule:evenodd;stroke:none;stroke-width:0.30899999;stroke-miterlimit:4;stroke-dasharray:none;stroke-opacity:1;paint-order:markers fill stroke"
       id="path901"
       d="m 82.30698,215.55019 c 0.131008,0.13339 0.176596,0.31592 0.267949,0.47016 0.08359,0.14113 0.18552,0.19873 0.272854,0.36688 0.0969,0.20183 0.243022,0.37359 0.386453,0.54348 0.05939,0.0154 0.104349,0.15404 0.167703,0.16309 0.05543,0.008 -0.04003,-0.10808 0.159335,0.0319 0.142883,0.17235 0.179493,0.34475 0.292759,0.37425 0.122513,0.10626 0.190891,0.16267 0.320929,0.32177 0.04096,0.0561 0.02265,0.0293 0.05555,0.08 0,0 -3.233835,1.87297 -3.233835,1.87297 v 0 c -0.0386,-0.0675 0.04806,0.0726 -0.02357,-0.0412 -0.07833,-0.10359 -0.193876,-0.16068 -0.275953,-0.26369 -0.08479,-0.0917 -0.188222,-0.19073 -0.242892,-0.29493 -0.180274,-0.0327 -0.281528,-0.19097 -0.395346,-0.32075 -0.173159,-0.18301 -0.314936,-0.4076 -0.430221,-0.6292 -0.139427,-0.27643 -0.363767,-0.5075 -0.510458,-0.78233 0,0 3.188751,-1.89237 3.188751,-1.89237 z"
       inkscape:connector-curvature="0" />
    <path
       style="opacity:1;fill:none;fill-opacity:1;fill-rule:evenodd;stroke:none;stroke-width:0.30899999;stroke-miterlimit:4;stroke-dasharray:none;stroke-opacity:1;paint-order:markers fill stroke"
       id="path903"
       d="m 94.755296,218.43021 c -0.10904,1.10598 0.0286,2.19691 0.16702,3.29238 0.33929,2.36939 0.91531,4.70149 1.49682,7.02161 0.56798,2.35954 1.1445,4.7143 1.92705,7.01282 0.37211,1.18919 0.82521,2.34632 1.34221,3.47937 0.20206,0.49797 0.487504,0.94947 0.772884,1.39912 0.14354,0.2736 0.31602,0.52136 0.43903,0.8079 0.0111,0.0276 0.0222,0.0551 0.0333,0.0827 0.005,1.8e-4 0.0108,2.6e-4 0.0162,5.2e-4 0,0 -3.194644,1.9172 -3.194644,1.9172 v 0 c -0.0954,-0.13733 -0.0673,-0.0709 -0.10257,-0.19062 -0.0948,-0.27443 -0.26595,-0.4984 -0.38442,-0.76117 -0.28367,-0.47245 -0.56893,-0.94504 -0.75419,-1.47019 -0.48588,-1.1662 -0.89259,-2.36102 -1.24912,-3.57271 -0.70068,-2.33785 -1.2609,-4.70944 -1.85285,-7.07682 -0.6021,-2.31635 -1.1849,-4.64452 -1.61715,-6.99842 -0.18123,-1.08305 -0.3658,-2.15756 -0.34334,-3.26034 0,0 3.30384,-1.68339 3.30384,-1.68339 z"
       inkscape:connector-curvature="0" />
    <path
       style="opacity:1;fill:none;fill-opacity:1;fill-rule:evenodd;stroke:none;stroke-width:0.30899999;stroke-miterlimit:4;stroke-dasharray:none;stroke-opacity:1;paint-order:markers fill stroke"
       id="path905"
       d="m 97.498249,219.0313 c 0.6202,0.0179 1.24079,0.0121 1.86119,0.0146 0.746921,-0.003 1.493831,0.002 2.240751,0.005 0.98429,0.009 1.96504,0.14591 2.93971,0.27555 0.78707,0.21673 1.64551,0.31579 2.36574,0.71525 0.45574,0.30194 0.75835,0.70265 1.00405,1.18205 0.21384,0.47856 0.29023,0.99807 0.28234,1.51829 -0.0815,0.52723 -0.34457,1.00877 -0.57598,1.48413 -0.24392,0.47568 -0.47068,0.95829 -0.78203,1.39439 -0.26833,0.43995 -0.56984,0.85086 -0.88376,1.25809 -0.33291,0.39814 -0.67983,0.78971 -1.03306,1.1714 -0.32451,0.32779 -0.64838,0.65691 -0.98639,0.97086 -0.0372,0.0313 -0.0696,0.0693 -0.1115,0.0938 -1.08586,0.63545 -2.14324,1.32522 -3.26996,1.88505 -0.0648,0.0322 -0.24673,-0.24386 -0.27391,-0.46655 -0.0258,-0.2109 0.0669,-0.30972 0.16306,-0.47992 0.50332,-0.63831 1.12481,-1.1656 1.73942,-1.69186 1.44169,-1.26761 3.06491,-2.04637 4.80363,-2.97449 0.17002,-0.0908 0.36859,-0.11342 0.54952,-0.17981 0.17999,-0.0661 0.35504,-0.14484 0.53256,-0.21725 1.20239,-0.34967 2.45838,-0.47503 3.70178,-0.59227 1.13393,-0.0501 2.27627,-0.14995 3.41036,-0.0676 0.75966,0.034 1.45156,0.38462 2.00008,0.89744 0.38633,0.39432 0.6613,0.85152 0.8773,1.35426 0.2098,0.69009 0.4058,1.38958 0.54155,2.09876 0.11479,0.81806 0.11006,1.6483 0.10725,2.47285 0.0274,0.65358 -0.19796,1.24427 -0.43017,1.83999 -0.19482,0.41582 -0.53993,0.75673 -0.88897,1.04986 -1.07297,1.00828 -1.70799,1.05611 -3.60432,2.13541 -0.0574,0.0327 -0.10466,0.0833 -0.16565,0.10854 -0.29261,0.0689 -0.15502,0.0188 -0.41411,0.1465 -0.17466,0.16239 -0.40761,0.16712 -0.61546,0.26498 -0.0726,0.0342 -0.13468,0.0916 -0.21142,0.11501 -0.19281,0.0588 -0.39796,0.0692 -0.59164,0.12496 -0.65191,0.19951 -1.31529,0.35816 -1.98632,0.48623 -0.67766,0.18229 -1.36457,0.3231 -2.04185,0.51233 -0.55338,0.17749 -1.04766,0.32786 -1.56922,0.59981 -0.22411,0.11285 -0.4749,0.0713 -0.69831,0.18643 -0.0602,0.031 -0.10343,0.0899 -0.16443,0.11938 -0.54188,0.26149 0.12263,-0.15173 -0.32384,0.13948 -0.13166,0.0705 -0.27703,0.18747 -0.43095,0.21138 -0.0144,0.002 -0.23385,-0.0105 -0.26767,0.0113 -0.027,0.0174 -0.028,0.0577 -0.0421,0.0865 1.0421,-0.60676 2.0842,-1.21353 3.1263,-1.82029 0,0 -3.45386,1.40122 -3.45386,1.40122 v 0 c 1.07722,-0.6371 2.15442,-1.27419 3.23164,-1.91129 0.27563,0.0198 0.48647,-0.18756 0.73012,-0.29192 0.39028,-0.14052 0.78101,-0.27558 1.16964,-0.42219 0.52235,-0.22147 1.05941,-0.38814 1.6057,-0.54061 0.67984,-0.16065 1.35608,-0.33396 2.03811,-0.48559 0.6697,-0.14393 1.3315,-0.32551 1.98811,-0.51991 0.48862,-0.13024 0.95051,-0.33545 1.4037,-0.55742 0.34047,-0.12738 0.0677,-0.0164 0.3943,-0.17425 0.0648,-0.0313 0.25851,-0.12554 0.19647,-0.0892 -1.00822,0.59092 -2.02395,1.16893 -3.03592,1.7534 0.2321,-0.0754 0.12888,-0.0129 0.30642,-0.19281 0.18076,-0.17224 0.0814,-0.0948 0.2993,-0.23072 0.0577,-0.0545 0.0872,-0.13416 0.14424,-0.1893 0.16923,-0.16359 0.38828,-0.28737 0.53764,-0.47767 0.21093,-0.57325 0.51215,-1.10876 0.51761,-1.73579 -2.6e-4,-0.80434 0.017,-1.61212 -0.0812,-2.41214 -0.11577,-0.6818 -0.3319,-1.34678 -0.5263,-2.00921 -0.20155,-0.44963 -0.43958,-0.8748 -0.79767,-1.22257 -0.51397,-0.45358 -1.1325,-0.70199 -1.82295,-0.7163 -1.11615,-0.0458 -2.23498,0.004 -3.34824,0.0896 -1.23098,0.1147 -2.47702,0.27109 -3.6488,0.68119 -1.615,0.6284 -2.21983,1.11831 1.54826,-1.11666 0.14312,-0.0849 -0.29589,0.15401 -0.43358,0.24747 -0.0848,0.0575 -0.72804,0.5877 -0.80092,0.64742 -0.58959,0.5145 -1.20162,1.00367 -1.72085,1.59302 -0.0337,0.0348 -0.17778,0.20626 -0.25781,0.22329 -0.0261,0.006 -0.0563,-0.0119 -0.0733,-0.0325 -0.0245,-0.0299 -0.008,-0.12628 -0.0422,-0.10799 -5.599161,3.00898 -4.051091,2.2559 -2.94932,1.72292 0.38574,-0.25221 0.67673,-0.62574 1.02002,-0.93028 0.36487,-0.36255 0.66141,-0.78361 1.05424,-1.11735 0.276,-0.43536 0.66208,-0.78668 0.88194,-1.26222 0.30777,-0.42744 0.60106,-0.85405 0.80491,-1.34488 0.23639,-0.43828 0.43333,-0.89347 0.63706,-1.34765 0.0601,-0.45269 -0.0235,-0.91804 -0.19085,-1.34163 -0.20866,-0.41066 -0.46851,-0.75484 -0.87279,-0.99409 -0.70677,-0.33206 -1.49564,-0.47669 -2.25476,-0.63574 -0.97146,-0.11586 -1.943651,-0.26364 -2.925191,-0.22986 -0.75161,0.003 -1.50321,0.008 -2.25483,0.005 -0.63383,0.003 -1.26783,-0.003 -1.90148,0.0146 0,0 2.99982,-2.1795 2.99982,-2.1795 z"
       inkscape:connector-curvature="0" />
    <path
       style="opacity:1;fill:none;fill-opacity:1;fill-rule:evenodd;stroke:none;stroke-width:0.30899999;stroke-miterlimit:4;stroke-dasharray:none;stroke-opacity:1;paint-order:markers fill stroke"
       id="path907"
       d="m 124.70813,224.17117 c -0.0552,1.10663 -0.0494,2.2156 -0.0649,3.32333 10e-4,1.5112 -0.009,3.02252 0.005,4.53366 0.0131,1.06255 0.0255,2.12495 0.0244,3.18758 0.1119,0.67767 0.16244,1.42056 0.46187,2.0482 0.11875,0.40382 0.45563,0.66265 0.69097,0.99205 0.31761,0.39418 0.77928,0.6361 1.21354,0.88351 0.5267,0.22141 0.96048,0.46691 1.53207,0.56148 0.88773,0.0878 1.78157,0.0759 2.67255,0.0837 0.75855,0.015 1.51637,-0.0158 2.26779,-0.12558 0.18806,-0.0275 0.3718,-0.079 0.5577,-0.11852 0.19122,-0.0271 0.38243,-0.0542 0.57365,-0.0814 0.94884,-0.19538 1.85073,-0.54229 2.75676,-0.87145 1.35978,-0.52476 3.79986,-2.03112 -1.74529,1.13395 0,0 3.433,-1.34255 3.433,-1.34255 v 0 c -1.54992,0.90188 -2.91137,1.86619 -4.56321,2.4563 -0.89945,0.33296 -1.82012,0.61521 -2.76533,0.78585 -1.13759,0.18199 -2.28011,0.34306 -3.43638,0.28468 -0.92312,0.003 -1.85404,0.0222 -2.77006,-0.10704 -0.55934,-0.14311 -1.07505,-0.41064 -1.59526,-0.65539 -0.47856,-0.27236 -0.95689,-0.57305 -1.31011,-1.00316 -0.26531,-0.33883 -0.59398,-0.64119 -0.71761,-1.06821 -0.29877,-0.68964 -0.36626,-1.47397 -0.4886,-2.20972 -0.001,-1.07092 0.0114,-2.14162 0.0244,-3.21247 0.0135,-1.51269 0.004,-3.02555 0.005,-4.53829 -0.0154,-1.08567 -0.009,-2.17269 -0.0649,-3.25718 0,0 3.30384,-1.68339 3.30384,-1.68339 z"
       inkscape:connector-curvature="0" />
    <path
       style="opacity:1;fill:none;fill-opacity:1;fill-rule:evenodd;stroke:none;stroke-width:0.30899999;stroke-miterlimit:4;stroke-dasharray:none;stroke-opacity:1;paint-order:markers fill stroke"
       id="path909"
       d="m 124.2062,220.02973 c 0.71576,0.0211 1.43199,0.0181 2.148,0.0198 0.79514,-0.005 1.59028,0.001 2.38541,-0.004 0.76674,0.005 1.5335,10e-4 2.30024,-0.002 0.33626,0.0564 0.631,-0.0649 0.94861,-0.13502 0.2883,-0.0637 0.55411,-0.10359 0.83437,-0.20388 0.19803,-0.13185 0.52459,-0.0455 0.72081,-0.16263 0.19942,-0.11906 -0.11963,-0.11558 0.21739,-0.0705 0.0316,-0.0844 0.14831,0.0668 0.18618,0.0173 0.0208,-0.0272 0.019,-0.11835 -0.0111,-0.10205 -3.44845,1.86921 -4.31344,2.00591 -3.04942,1.79176 0,0 3.43219,-1.44175 3.43219,-1.44175 v 0 c -0.40284,1.30863 -0.0408,0.22699 -3.28708,1.99288 -0.0335,0.0182 -0.0652,-0.0422 -0.10219,-0.0517 -0.0439,-0.0112 -0.0892,0.0496 -0.13186,0.0325 -0.23591,0.17266 -0.63086,0.0956 -0.8942,0.24585 -0.59984,0.13924 -1.20627,0.27373 -1.82622,0.23965 -0.76461,-0.004 -1.52923,-0.008 -2.29384,-0.002 -0.79154,-0.005 -1.5831,0.001 -2.37466,-0.004 -0.73418,0.002 -1.46854,-8e-4 -2.20249,0.0198 0,0 2.99982,-2.1795 2.99982,-2.1795 z"
       inkscape:connector-curvature="0" />
    <path
       style="opacity:1;fill:none;fill-opacity:1;fill-rule:evenodd;stroke:none;stroke-width:0.30899999;stroke-miterlimit:4;stroke-dasharray:none;stroke-opacity:1;paint-order:markers fill stroke"
       id="path911"
       d="m 127.20148,229.7644 c 0.41106,0.0129 0.8225,0.005 1.23366,8e-5 0.27108,-0.001 0.54213,-0.003 0.81322,-1.5e-4 0.39704,-0.006 0.77602,-0.15635 1.14208,-0.29899 0.10128,-0.0796 0.23642,-0.0657 0.34718,-0.1172 0.0488,-0.0227 0.0805,-0.0757 0.13096,-0.0945 0.053,-0.0198 0.11469,-10e-4 0.16897,-0.0176 0.0243,-0.007 0.19347,-0.11365 0.22172,-0.13113 -1.03037,0.59566 -4.03888,2.50686 -3.09113,1.78697 1.00359,-0.76231 2.16561,-1.28998 3.25989,-1.91515 0.0297,-0.017 0.13183,-0.0229 0.10232,-0.006 -1.03734,0.60477 -4.01954,2.5862 -3.13524,1.7739 0.0201,-0.0185 8.35445,-4.83651 0.20204,-0.12206 1.30579,-0.84628 -3.45824,2.23863 3.41243,-1.98713 0.99859,-0.61418 -4.09856,2.27451 -3.0461,1.75807 1.22579,-0.60151 2.28504,-1.54299 3.56607,-2.01554 -0.0688,0.13751 0.38264,-0.17633 0.29091,-0.12431 -1.02147,0.5793 -4.08549,2.31771 -3.05737,1.75028 1.18623,-0.65469 2.22535,-1.73642 3.562,-1.95807 0.12229,-0.0645 0.28449,0.0122 0.40715,-0.0289 0.036,-0.012 0.0505,-0.0589 0.0838,-0.077 0.0833,-0.0451 0.18086,-0.0565 0.271,-0.0857 0.27398,-0.0618 0.49718,-0.25845 0.782,-0.31061 0.0911,-0.0186 0.18278,-0.0333 0.27478,-0.0463 0,0 -2.97229,2.24972 -2.97229,2.24972 v 0 c -0.08,0.0212 -0.15997,0.043 -0.23634,0.0756 -0.24976,0.12876 -0.50691,0.23536 -0.77832,0.30689 -0.25603,0.0864 -0.51026,0.1011 -0.76588,0.19134 -0.0728,0.0376 -0.28942,0.15399 -0.21848,0.11292 1.01685,-0.58867 4.09106,-2.31224 3.05341,-1.76106 -1.60695,0.85359 -2.2903,1.49667 -3.60195,2.01015 -0.16899,0.0911 -0.0826,0.0508 -0.25893,0.12107 1.0116,-0.59806 4.02906,-2.41905 3.04587,-1.77534 -10.99971,7.20173 2.11123,-1.88133 -0.35654,0.24309 -1.09552,0.63961 -2.21737,1.23611 -3.28657,1.91882 -1.00616,0.64246 4.21644,-2.2135 3.09731,-1.79797 -1.17717,0.43708 -2.18458,1.23882 -3.27385,1.86352 -0.0232,0.0133 -0.0861,0.0637 -0.0629,0.0501 1.9458,-1.14162 6.45727,-3.82888 -0.17396,0.11502 -0.29237,0.10455 -0.58102,0.21062 -0.87441,0.31764 -0.39553,0.13374 -0.81289,0.21449 -1.23163,0.20492 -0.27095,0.002 -0.54186,0.001 -0.81281,-1.5e-4 -0.41124,-0.005 -0.82274,-0.0126 -1.2339,8e-5 0,0 2.99983,-2.1795 2.99983,-2.1795 z"
       inkscape:connector-curvature="0" />
    <path
       style="opacity:1;fill:none;fill-opacity:1;fill-rule:evenodd;stroke:none;stroke-width:0.30899999;stroke-miterlimit:4;stroke-dasharray:none;stroke-opacity:1;paint-order:markers fill stroke"
       id="path913"
       d="m 153.10709,221.4604 c -0.63938,-0.0195 -1.27927,-0.0108 -1.91887,-0.0164 -0.68958,0.005 -1.37917,0.002 -2.06876,0.002 -0.68685,-0.004 -1.37369,0.002 -2.06055,0.002 -0.51405,0.0561 -1.01037,0.18102 -1.50503,0.3198 0.13358,-0.0928 -0.45166,0.27565 -0.33673,0.21012 6.96573,-3.97158 0.84904,-0.53168 -0.29512,0.19366 -0.93569,0.59319 3.75456,-2.33385 2.89073,-1.64018 -0.32419,0.28573 -0.53245,0.66278 -0.69175,1.05844 -0.26675,0.61105 -0.48563,1.231 -0.64432,1.87802 -0.16964,0.64155 -0.24806,1.3004 -0.29134,1.96097 -0.0856,0.6549 0.11559,1.01927 0.49884,1.51958 0.45172,0.47478 1.03334,0.80091 1.59794,1.12295 0.62584,0.39934 1.33943,0.59288 2.03471,0.82789 0.91957,0.31211 1.87779,0.47885 2.83223,0.64388 1.0151,0.18222 2.03233,0.31909 3.0315,0.58606 0.71529,0.15933 1.38365,0.46726 2.03682,0.79015 0.47161,0.30837 0.76353,0.77116 1.01682,1.26054 0.23803,0.58292 0.31592,1.20913 0.36728,1.83151 0.0408,0.59723 0.0391,1.19492 0.0394,1.79307 0.0417,0.54503 -0.1033,1.04096 -0.41929,1.48158 -1.11747,1.36081 -2.77119,2.28982 -4.43244,2.83114 -0.63729,0.28289 -1.35352,0.35698 -2.03218,0.5163 -1.07233,0.1076 -2.14147,0.23493 -3.21571,0.33387 -1.36369,0.19275 -2.73619,0.30618 -4.11088,0.38006 -1.21932,0.0425 -2.43946,0.0529 -3.65942,0.0564 -0.85325,1.7e-4 -1.70645,0.0103 -2.55967,0.0137 -0.23246,0.0387 -0.49132,-0.0377 -0.72322,0.009 -0.0471,0.009 -0.0835,0.0506 -0.1302,0.0619 -0.0531,0.0129 -0.22627,-0.0109 -0.27174,-0.0157 -0.15482,-0.0132 -0.0798,-0.0262 -0.22443,0.0426 0,0 2.96503,-2.23095 2.96503,-2.23095 v 0 c 0.19539,0.007 0.10862,0.006 0.26024,0.006 0.3627,-0.0474 0.72346,-0.0385 1.09118,-0.0271 0.83778,0.006 1.67555,0.0196 2.51339,0.0184 1.21104,-0.002 2.42276,0.002 3.63266,-0.0598 1.37124,-0.0732 2.73713,-0.20237 4.09771,-0.39007 1.0847,-0.11285 2.16863,-0.23254 3.24473,-0.41073 0.67967,-0.14374 1.37111,-0.2711 2.00319,-0.57191 1.23142,-0.61113 1.05709,-0.53307 -2.62381,1.56886 -0.0793,0.0453 0.13829,-0.11982 0.21377,-0.17116 0.21855,-0.14864 0.42019,-0.28083 0.57559,-0.50746 0.10002,-0.11892 0.23005,-0.21381 0.31392,-0.34462 0.16994,-0.26505 0.22354,-0.61681 0.22024,-0.92293 8e-4,-0.59002 8e-4,-1.18059 -0.0244,-1.77007 -0.0379,-0.57739 -0.0897,-1.1639 -0.31903,-1.70217 -0.18688,-0.43114 -0.47125,-0.80916 -0.87375,-1.06131 -0.62704,-0.31145 -1.27882,-0.59193 -1.96291,-0.74891 -0.9895,-0.24751 -1.99418,-0.38806 -2.99523,-0.5761 -0.97514,-0.17317 -1.95756,-0.33699 -2.89555,-0.66492 -0.72179,-0.23488 -1.43931,-0.47333 -2.08618,-0.88213 -0.60378,-0.34999 -1.21278,-0.71879 -1.68442,-1.24146 -0.39548,-0.52433 -0.71357,-1.06283 -0.6264,-1.74824 0.0418,-0.68203 0.12136,-1.36127 0.27605,-2.02794 0.16544,-0.6451 0.2983,-1.29723 0.61523,-1.89012 0.11332,-0.45563 0.31699,-0.85044 0.59392,-1.22059 1.05798,-1.14066 -1.41514,1.50148 3.41668,-2.09618 0.93615,-0.69704 -4.01825,2.37637 -3.02449,1.76425 0.88553,-0.54546 2.3716,-1.6988 3.70604,-2.07989 0.50762,-0.1146 1.01502,-0.23728 1.54021,-0.23259 0.68511,-2.5e-4 1.37022,0.006 2.05533,0.002 0.6874,5.3e-4 1.3748,-0.003 2.0622,0.002 0.65467,-0.006 1.30959,0.003 1.96405,-0.0164 0,0 -2.99982,2.1795 -2.99982,2.1795 z"
       inkscape:connector-curvature="0" />
    <path
       style="opacity:1;fill:none;fill-opacity:1;fill-rule:evenodd;stroke:none;stroke-width:0.30899999;stroke-miterlimit:4;stroke-dasharray:none;stroke-opacity:1;paint-order:markers fill stroke"
       id="path931"
       d="m 70.379459,188.25419 c -1.236969,-0.0306 -2.474528,-0.0363 -3.711826,-0.033 -1.342903,-0.005 -2.685796,0.01 -4.028662,0.009 -1.26474,0.13248 -2.489748,0.6265 -3.584056,1.26087 4.845293,-2.87553 2.438519,-1.42827 1.449456,-0.65897 -0.624147,0.48546 -1.20813,0.99779 -1.777505,1.5458 -1.497566,1.41541 -2.736064,3.05565 -3.921975,4.73184 -1.472697,2.06675 -2.579475,4.36496 -3.644553,6.66007 -1.229662,2.52352 -1.951778,5.23331 -2.666331,7.9346 -0.646427,2.3011 -0.886044,4.66349 -0.998209,7.04075 -0.200811,2.45772 0.317781,4.57725 0.99986,6.90816 0.828138,2.59431 2.152306,4.95827 3.688956,7.19007 1.15651,1.55397 2.50203,2.97617 4.137652,4.03183 0.290417,0.18744 0.598636,0.34575 0.897954,0.51862 1.944261,0.96153 4.071662,1.47413 6.198827,1.83734 2.140681,0.24917 4.316564,0.43307 6.471859,0.2522 0.451374,-0.0379 0.898528,-0.11551 1.347793,-0.17326 2.089428,-0.43257 4.191275,-1.04768 6.093225,-2.03615 0.35879,-0.18648 0.702712,-0.40026 1.054068,-0.6004 -0.657585,0.37478 -1.288574,0.80065 -1.972757,1.12432 -0.326298,0.15437 0.603395,-0.39715 0.892519,-0.61327 0.275082,-0.20562 0.533019,-0.43324 0.798679,-0.65089 0.755216,-0.61875 1.442463,-1.25325 2.114087,-1.96139 1.139584,-1.16346 2.072804,-2.49327 2.975374,-3.84146 0.787228,-1.18883 1.364419,-2.49164 1.801879,-3.84408 0.306536,-1.09874 0.50142,-2.24441 0.43852,-3.38673 -0.197334,-1.05238 -0.858424,-1.72912 -1.760074,-2.24208 -1.093666,-0.5766 -2.320692,-0.7454 -3.529664,-0.90427 -1.380286,-0.15252 -2.770727,-0.16537 -4.1578,-0.17951 -1.54243,-0.1205 -3.033101,0.14552 -4.513812,0.54614 -0.878139,0.27885 -1.778024,0.52041 -2.614843,0.9129 -0.334581,0.15693 -0.660257,0.33239 -0.994704,0.48961 -1.139962,0.59995 -3.205585,1.77811 1.934874,-1.12938 0.10767,-0.0609 -0.210801,0.12953 -0.314888,0.19638 -0.238641,0.15324 -0.273217,0.18185 -0.496827,0.34147 -0.18578,0.1577 -0.398817,0.31785 -0.548195,0.51483 -0.02193,0.0289 -0.01439,0.10263 -0.05024,0.0967 -0.04011,-0.007 -0.03103,-0.0752 -0.04654,-0.11275 -0.0013,-0.0651 -0.03214,-0.13665 -0.0039,-0.19531 0.03228,-0.0669 0.1123,-0.0974 0.168452,-0.1461 -0.948613,0.5394 -1.884352,1.1021 -2.845842,1.6182 -0.142042,0.0762 0.257894,-0.19368 0.382508,-0.29595 0.316878,-0.26008 0.622088,-0.53407 0.934791,-0.79915 2.359216,-1.93837 5.075198,-3.42214 7.831934,-4.71394 2.641865,-1.18099 5.449123,-1.91826 8.236548,-2.66402 2.180577,-0.55853 4.394718,-0.94872 6.632538,-1.17814 0.899038,-0.0802 1.566995,-0.28633 2.293564,0.34715 0.356487,0.57075 0.474991,1.23754 0.641448,1.87877 0.204417,0.92534 0.373983,1.85998 0.528741,2.795 0.289496,1.32801 0.528881,2.66541 0.79711,3.9977 0.337328,1.5241 0.570174,3.06864 0.902462,4.59361 0.274264,1.43716 0.775695,2.81402 1.254633,4.19197 0.459227,1.12067 0.83458,2.27983 1.375122,3.36507 0.188825,0.56596 0.561829,1.02517 0.88062,1.5163 0.06433,0.0804 0.110707,0.15384 0.21268,0.17628 0,0 -3.12751,2.0115 -3.12751,2.0115 v 0 c -0.11385,-0.0986 -0.211444,-0.19867 -0.28752,-0.33112 -0.285456,-0.52153 -0.667223,-0.99814 -0.833366,-1.58188 -0.52319,-1.11147 -0.871215,-2.29682 -1.338733,-3.43259 -0.488712,-1.38955 -1.007568,-2.7796 -1.270879,-4.23376 -0.322977,-1.52673 -0.559011,-3.07085 -0.920154,-4.58975 -0.265557,-1.33377 -0.503854,-2.66973 -0.826789,-3.99137 -0.171468,-0.91742 -0.356481,-1.83307 -0.559321,-2.74387 -0.151696,-0.56376 -0.260205,-1.14685 -0.549688,-1.6618 -0.588412,-0.41893 -1.357283,-0.20415 -2.030031,-0.18904 -2.186591,0.19426 -4.351065,0.57174 -6.475164,1.13064 -2.805816,0.73467 -5.620396,1.51438 -8.251568,2.75674 -1.862146,0.90076 -1.049957,0.54527 1.010293,-0.72354 0.269459,-0.16595 -0.553837,0.30689 -0.822698,0.47381 -0.420939,0.26132 -1.012603,0.68182 -1.409827,0.98864 -0.194877,0.15053 -0.381879,0.31097 -0.572818,0.46646 -0.29817,0.25606 -0.604351,0.51369 -0.893572,0.78062 -0.115284,0.1064 -0.206206,0.24325 -0.339545,0.3259 -1.129541,0.70013 -2.281108,1.3647 -3.439282,2.01637 -0.07936,0.0447 -0.175082,0.0842 -0.264647,0.0677 -0.09817,-0.018 -0.16769,-0.10828 -0.251536,-0.16241 -0.03431,-0.0703 -0.09072,-0.13355 -0.102944,-0.21078 -0.0068,-0.043 0.03628,-0.0792 0.05052,-0.1203 0.02132,-0.0616 0.02439,-0.13032 0.05602,-0.1873 0.105823,-0.19065 0.371581,-0.28828 0.453205,-0.49966 1.638821,-1.10977 3.338621,-2.14453 5.12472,-3.00616 1.161843,-0.55042 2.359033,-1.00206 3.608639,-1.31643 1.505241,-0.3727 3.022904,-0.5721 4.578024,-0.47637 1.401191,0.0165 2.805274,0.0419 4.198488,0.20639 1.247923,0.18293 2.511194,0.38703 3.62789,1.01177 1.003821,0.62564 1.673317,1.35514 1.942737,2.53777 0.1015,1.18275 -0.124603,2.37841 -0.409964,3.5239 -0.425976,1.38636 -1.008136,2.71588 -1.780855,3.94714 -0.920874,1.36133 -1.830861,2.73696 -2.994313,3.91001 -2.2245,2.43599 -4.783558,4.12731 -7.76242,5.626 -0.354867,0.19183 -0.702715,0.39725 -1.064601,0.57549 -1.925402,0.94828 -4.029858,1.55431 -6.134865,1.93299 -0.454691,0.05 -0.907777,0.11781 -1.364072,0.15005 -2.182905,0.15426 -4.38952,-0.0103 -6.55523,-0.28052 -2.163437,-0.38429 -4.329146,-0.90796 -6.291188,-1.92744 -0.815774,-0.49749 -1.043271,-0.6029 -1.803358,-1.2047 -1.257606,-0.9957 -2.30741,-2.22298 -3.25855,-3.50693 -1.5363,-2.27402 -2.871607,-4.66384 -3.730635,-7.28424 -0.73411,-2.26378 -1.308526,-4.58434 -1.105996,-6.98576 0.09568,-2.4122 0.371195,-4.80478 1.025801,-7.13697 0.719142,-2.70952 1.425604,-5.43551 2.626926,-7.98131 1.052933,-2.30295 2.138677,-4.61936 3.590906,-6.70147 1.141153,-1.68879 2.353411,-3.33458 3.822287,-4.75699 1.826184,-1.91821 4.034449,-3.25843 6.387352,-4.48945 1.156406,-0.58765 2.392404,-1.08249 3.704629,-1.12821 1.334474,-7.9e-4 2.668974,0.014 4.003485,0.009 1.267565,0.003 2.535354,-0.003 3.802612,-0.033 0,0 -2.976446,2.16252 -2.976446,2.16252 z"
       inkscape:connector-curvature="0" />
    <ellipse
       style="opacity:1;fill:none;fill-opacity:1;fill-rule:evenodd;stroke:none;stroke-width:0.30899999;stroke-miterlimit:4;stroke-dasharray:none;stroke-opacity:1;paint-order:markers fill stroke"
       id="path933"
       cx="111.94871"
       cy="218.12419"
       rx="72.261208"
       ry="58.408016" />
    <ellipse
       style="opacity:1;fill:url(#radialGradient975);fill-opacity:1;fill-rule:evenodd;stroke:none;stroke-width:0.48483872;stroke-miterlimit:4;stroke-dasharray:none;stroke-opacity:1;paint-order:markers fill stroke"
       id="path935"
       cx="101.83961"
       cy="215.0041"
       rx="80.623032"
       ry="74.008446" />
    <path
       style="opacity:1;fill:#a9f3f7;fill-opacity:0.98823529;fill-rule:evenodd;stroke:none;stroke-width:0.30899999;stroke-miterlimit:4;stroke-dasharray:none;stroke-opacity:1;paint-order:markers fill stroke"
       id="path979"
       d="m 61.055149,196.74591 c -0.104273,2.02176 -0.125516,4.04708 -0.147172,6.07112 -0.04727,3.63607 -0.03229,7.27227 -0.02777,10.90858 -0.0038,2.8039 0.03504,5.60724 0.08768,8.41053 0.01122,1.32524 0.101317,2.64517 -0.112427,3.95796 -0.123507,0.56253 -0.302411,1.1155 -0.584991,1.61864 -0.106191,0.26402 -0.326414,0.40394 -0.506569,0.60132 -1.021402,0.58511 -2.15229,1.74017 -3.464687,1.91471 0,0 2.96304,-2.26203 2.96304,-2.26203 v 0 c 1.147194,-0.43707 2.43786,-1.65485 -2.946212,1.753 0.02856,-0.0208 0.141557,-0.1012 0.157784,-0.12223 0.03318,-0.043 0.03639,-0.10797 0.07768,-0.14329 0.03636,-0.0311 0.321061,-0.0969 0.34676,-0.24468 0.299072,-0.47754 0.531275,-0.98166 0.690964,-1.52529 0.04025,-0.19632 0.15906,-0.75717 0.181129,-0.94463 0.11748,-0.99791 0.02521,-2.01153 0.07466,-3.0123 0.0522,-2.83307 0.0913,-5.6662 0.08768,-8.49987 0.0045,-3.62688 0.01968,-7.25365 -0.02777,-10.88029 -0.02135,-1.97403 -0.04096,-3.94953 -0.147171,-5.92114 0,0 3.297404,-1.68011 3.297404,-1.68011 z"
       inkscape:connector-curvature="0" />
    <path
       style="opacity:1;fill:#b3f4f9;fill-opacity:1;fill-rule:evenodd;stroke:none;stroke-width:0.30248752;stroke-miterlimit:4;stroke-dasharray:none;stroke-opacity:1;paint-order:markers fill stroke"
       id="path983"
       d="m 41.934697,199.67194 c 1.215446,-0.54886 2.483384,-0.96822 3.734722,-1.43212 2.066435,-0.6765 4.163451,-1.25118 6.266101,-1.81008 2.47803,-0.7217 4.951145,-1.46041 7.420472,-2.20997 2.315065,-0.73186 4.65755,-1.3684 6.996714,-2.02134 2.057924,-0.63911 4.181183,-1.03439 6.248464,-1.63923 1.542776,-0.40951 3.080329,-0.86644 4.57903,-1.41214 0.900536,-0.32741 1.687325,-0.85482 2.459733,-1.39081 1.058323,-0.76895 2.604909,-1.96946 -2.218358,1.81324 -0.05651,0.0443 0.09008,-0.10894 0.139026,-0.1604 0.195941,-0.20598 0.07136,-0.0307 0.200189,-0.23366 0.16547,-0.30326 0.232437,-0.64757 0.329987,-0.97294 0.04693,-0.35664 0.16353,-0.69615 0.195679,-1.05357 -0.0027,-0.12131 -0.0089,-0.24104 -0.02716,-0.36069 l 3.022833,-2.18832 v 0 c 0.0155,0.13373 0.04955,0.26489 0.04303,0.40075 0.01919,0.22841 0.02172,0.49017 -0.06716,0.71054 -0.02434,0.0605 -0.07339,0.11291 -0.08823,0.17561 -0.01759,0.0744 -0.0047,0.15126 -0.007,0.22691 -0.105249,0.84966 0.06221,-0.30827 -0.105516,0.38341 -0.01453,0.0599 0.0054,0.12263 -0.0058,0.18304 -0.05261,0.28253 -0.05898,0.002 -0.131824,0.30234 -0.0145,0.0599 -0.0041,0.12191 -0.0061,0.18286 -0.05768,0.1075 -0.07423,0.23404 -0.150468,0.33143 -0.0417,0.0534 -0.116928,0.0754 -0.16982,0.11942 -1.174992,0.97912 -2.161666,1.97999 -3.409798,2.7951 -0.787476,0.50436 -1.576079,1.00166 -2.489082,1.28544 -1.495753,0.5077 -3.020082,0.93933 -4.547456,1.34703 -2.066418,0.56705 -4.179686,0.95917 -6.223017,1.60965 -2.326758,0.63275 -4.648653,1.27756 -6.951849,1.98874 -2.486005,0.75021 -4.969318,1.50995 -7.462727,2.23626 -2.105316,0.5685 -4.209221,1.14528 -6.267502,1.86124 -1.303792,0.48934 -2.091157,0.88374 -3.355419,1.46177 l 2.048234,-2.52959 z"
       inkscape:connector-curvature="0"
       sodipodi:nodetypes="cccccccccccccccccccccccccccccccccccc"
       inkscape:transform-center-x="-1.8241435"
       inkscape:transform-center-y="0.52139515" />
    <path
       style="opacity:1;fill:#a9f3f7;fill-opacity:0.99215686;fill-rule:evenodd;stroke:none;stroke-width:0.30899999;stroke-miterlimit:4;stroke-dasharray:none;stroke-opacity:1;paint-order:markers fill stroke"
       id="path985"
       d="m 71.781809,206.54357 c -0.05611,1.3075 -0.056,2.61696 -0.05965,3.92548 -0.07235,1.75573 0.0176,3.49606 0.235715,5.23744 0.197768,1.38805 0.559819,2.74637 0.865243,4.11357 0.197186,0.8284 0.36938,1.67127 0.638479,2.47928 0.146818,0.54102 0.33006,1.07269 0.444421,1.62188 0.139007,0.33189 0.188502,0.70411 0.331777,1.03219 0.116454,0.0646 0.156731,0.19615 0.206452,0.31054 0,0 -3.242845,1.81087 -3.242845,1.81087 v 0 c -0.04051,-0.12133 -0.110281,-0.2069 -0.197297,-0.30476 -0.151482,-0.35557 -0.195945,-0.75414 -0.34571,-1.11331 -0.100782,-0.5389 -0.282059,-1.05783 -0.399031,-1.59325 -0.276932,-0.82331 -0.430509,-1.68955 -0.611645,-2.53807 -0.29899,-1.38543 -0.606658,-2.77435 -0.814645,-4.17554 -0.235759,-1.74972 -0.321259,-3.5025 -0.27614,-5.26807 -0.0036,-1.28824 -0.0027,-2.57753 -0.05965,-3.8647 0,0 3.284532,-1.67355 3.284532,-1.67355 z"
       inkscape:connector-curvature="0" />
    <path
       style="opacity:1;fill:#a9f3f7;fill-opacity:1;fill-rule:evenodd;stroke:none;stroke-width:0.30899999;stroke-miterlimit:4;stroke-dasharray:none;stroke-opacity:1;paint-order:markers fill stroke"
       id="path987"
       d="m 69.31072,208.71659 c 1.919356,-1.24955 3.900289,-2.12513 6.012373,-2.9021 0.645544,-0.1716 1.263941,-0.44759 1.911099,-0.6127 0.646112,-0.16485 1.323821,-0.26639 1.980459,-0.38212 1.098997,-0.13806 2.221394,-0.30871 3.325918,-0.16387 1.145424,0.27553 1.763255,0.78522 2.389193,1.76046 0.721265,1.04521 0.960064,2.29439 1.205463,3.51551 0.215508,1.28232 0.290737,2.58128 0.32989,3.87915 0.08687,0.99597 -0.0196,1.96253 -0.286615,2.92117 -0.191077,0.74765 -0.651849,1.34776 -1.161121,1.90763 -1.340758,1.26605 -3.026587,2.16398 -4.740966,2.8313 -0.669927,0.16023 -1.355077,0.24339 -2.041871,0.18114 -0.873385,-0.25239 -1.607662,-0.80875 -2.3836,-1.25934 -0.95472,-0.50675 -1.906746,-1.01157 -2.839683,-1.55779 -0.343686,-0.23623 -0.721638,-0.4025 -1.027943,-0.69085 -0.08524,-0.0803 -0.151543,-0.17912 -0.236665,-0.2595 -0.476739,-0.45013 0.05031,0.15129 -0.395925,-0.38561 -0.246671,-0.36601 -0.328432,-0.79275 -0.375031,-1.22279 -0.07187,-1.51146 -0.307813,-0.23219 3.168603,-2.31249 0.07331,-0.0439 0.167664,0.0371 0.25301,0.041 0.516739,0.0347 0.622239,-0.0543 1.06235,0.29451 0.436679,0.45063 0.762129,0.98036 1.083328,1.51532 0.508953,0.86427 0.98089,1.74928 1.490049,2.61352 0.890654,1.54093 1.856597,3.03536 2.798818,4.54527 1.480624,2.29518 2.90639,4.62348 4.380611,6.92274 1.459283,2.24062 2.994604,4.43183 4.700228,6.49211 1.033896,1.15989 2.112174,2.29618 3.273509,3.33118 0.502923,0.44821 1.114092,0.90069 1.648331,1.30989 1.216458,0.80367 2.54304,1.43237 3.939211,1.85582 0.972865,0.29507 1.828527,0.45421 2.824387,0.66631 3.79804,0.90605 7.70638,1.08074 11.5916,1.23463 3.19435,0.0788 6.39487,0.17818 9.58768,-0.0109 2.19899,-0.1302 2.4841,-0.20648 4.65628,-0.49091 3.12064,-0.52255 6.20343,-1.34672 9.11958,-2.58577 0.48954,-0.208 0.96736,-0.44255 1.45104,-0.66383 -0.83141,-0.51457 3.76986,-0.96255 2.86536,-1.56886 -0.47102,-0.31572 -1.05934,1.08116 -1.5239,0.75602 -0.43142,-0.30194 0.85914,-0.60944 1.27875,-0.92759 1.0703,-0.81151 1.226,-0.98089 2.22682,-1.8624 1.66572,-1.50685 3.13448,-3.21209 4.36465,-5.08914 0.7341,-1.13779 1.26613,-2.37954 1.54519,-3.70299 0.0253,-0.54586 0.26423,-1.28363 0.0942,-1.82257 -0.087,-0.19909 -0.0778,-0.15397 -0.25929,-0.15595 0,0 3.07823,-2.10399 3.07823,-2.10399 v 0 c 0.20414,0.10403 0.35656,0.24098 0.41872,0.46953 0.23537,0.63495 -0.0414,1.38779 -0.0813,2.03974 -0.2822,1.37752 -0.801,2.67868 -1.5713,3.86128 -1.24682,1.92629 -2.7461,3.679 -4.44503,5.22326 -1.04372,0.9371 -1.1218,1.04326 -2.24652,1.90543 -2.59309,1.98777 -5.47271,3.5848 -8.37742,5.06629 -3.38728,1.49146 -6.80662,2.56419 -10.48841,3.06434 -0.76849,0.0946 -1.53485,0.20854 -2.30548,0.28372 -3.97748,0.38808 -7.97782,0.26849 -11.96552,0.17344 -3.94696,-0.1368 -7.92466,-0.26536 -11.787729,-1.16445 -2.46707,-0.51654 -4.866571,-1.07395 -6.941013,-2.58957 -1.801722,-1.40068 -3.441763,-2.99436 -4.920966,-4.73361 -1.695077,-2.08265 -3.224112,-4.29723 -4.694436,-6.54301 -1.464628,-2.30621 -2.884218,-4.64114 -4.441555,-6.88734 -0.973929,-1.49522 -1.968656,-2.97648 -2.903964,-4.49531 -0.521782,-0.85472 -1.018209,-1.72422 -1.539967,-2.57894 -0.306306,-0.48116 -0.601197,-0.98125 -1.034434,-1.36164 -0.289375,-0.14618 -0.633441,-0.0934 -0.950193,-0.0844 -0.06183,0.01 -0.223692,0.11176 -0.170955,0.078 4.281421,-2.74321 3.050363,-3.11327 3.045301,-1.71225 0.0028,0.35827 0.03864,0.72131 0.234871,1.03145 0.435914,0.51662 0.960009,0.92627 1.547328,1.26191 0.921626,0.56096 1.883458,1.04834 2.834214,1.55736 0.732377,0.43078 1.460267,0.96061 2.317139,1.09236 0.663019,5.3e-4 1.332545,-0.0738 1.953376,-0.31959 1.178391,-0.53892 2.641238,-1.4952 -2.323218,1.41521 -0.09376,0.055 0.192592,-0.10129 0.284278,-0.15964 0.237075,-0.15087 0.309007,-0.22665 0.520147,-0.40946 0.527736,-0.49186 1.006182,-1.06332 1.254028,-1.74852 0.0811,-0.28144 0.189211,-0.55554 0.253825,-0.84122 0.148204,-0.65524 0.105344,-1.33138 0.109365,-1.99663 -0.02275,-1.28222 -0.06197,-2.56877 -0.281021,-3.8354 -0.228529,-1.17917 -0.474195,-2.36992 -1.164913,-3.37903 -0.579319,-0.85982 -1.183849,-1.30376 -2.221857,-1.48418 -1.083802,-0.0662 -2.171658,0.0594 -3.242268,0.2254 -1.311002,0.2404 -2.596729,0.56159 -3.843647,1.04067 -1.492107,0.57653 -5.840238,2.55193 0.260747,-0.63831 0,0 -3.453863,1.33248 -3.453863,1.33248 z"
       inkscape:connector-curvature="0" />
    <path
       style="opacity:1;fill:#a9f3f7;fill-opacity:0.99215686;fill-rule:evenodd;stroke:none;stroke-width:0.30899999;stroke-miterlimit:4;stroke-dasharray:none;stroke-opacity:1;paint-order:markers fill stroke"
       id="path989"
       d="m 96.246504,205.01443 c -0.0459,1.17312 -0.05245,2.34782 -0.05846,3.52179 -0.0048,1.12568 0.02402,2.2509 0.03637,3.37637 0.01236,0.54136 0.01302,1.08295 0.02278,1.62434 -0.0039,0.45074 -0.0038,0.90141 -0.0016,1.35217 0.0035,0.44835 -0.0024,0.89683 -0.0032,1.34524 -5.29e-4,0.50171 -5.29e-4,1.00342 -5.29e-4,1.50513 7.1e-5,0.50015 1.06e-4,1.0003 1.24e-4,1.50045 -0.0033,0.46081 0.0044,0.92156 0.0046,1.38236 0.0045,0.32563 0.0045,0.65107 0.0067,0.97665 -0.0019,0.33589 -0.0019,0.67175 -0.0048,1.00765 -0.0024,0.37297 0.0016,0.74595 0.0019,1.11892 0.004,0.24696 0.007,0.49431 0.008,0.74137 0,0 -3.314626,1.68889 -3.314626,1.68889 v 0 c 0.0011,-0.24977 0.0039,-0.49981 0.008,-0.74949 1.83e-4,-0.37358 0.0043,-0.74718 0.0019,-1.12077 -0.003,-0.33428 -0.0028,-0.66851 -0.0048,-1.00278 0.0021,-0.32785 0.0021,-0.65556 0.0067,-0.98346 1.8e-4,-0.46234 0.0078,-0.92463 0.0045,-1.38699 1.9e-5,-0.50019 5.3e-5,-1.00038 1.25e-4,-1.50057 5.8e-5,-0.50156 2.25e-4,-1.00313 -5.29e-4,-1.5047 -7.94e-4,-0.44732 -0.0067,-0.89471 -0.0032,-1.34196 0.0021,-0.45023 0.0024,-0.90036 -0.0016,-1.35057 0.0097,-0.54913 0.0105,-1.09845 0.02278,-1.64756 0.01236,-1.13783 0.04105,-2.27541 0.03637,-3.41343 -0.006,-1.15411 -0.01193,-2.30901 -0.05846,-3.46222 0,0 3.290967,-1.67683 3.290967,-1.67683 z"
       inkscape:connector-curvature="0" />
    <path
       style="opacity:1;fill:#a9f3f7;fill-opacity:0.99215686;fill-rule:evenodd;stroke:none;stroke-width:0.30899999;stroke-miterlimit:4;stroke-dasharray:none;stroke-opacity:1;paint-order:markers fill stroke"
       id="path991"
       d="m 98.281822,204.8171 c 0.630418,0.84716 1.32274,1.64639 1.993398,2.46165 1.19002,1.45505 2.33295,2.9499 3.40997,4.49036 1.01613,1.52053 2.20621,2.91165 3.28673,4.38449 0.55927,0.7125 1.09814,1.43668 1.66328,2.14406 0.26085,0.29022 0.45989,0.61709 0.69195,0.92965 0.09,0.19002 0.25775,0.29837 0.35557,0.47412 0.0136,0.0457 0.0192,0.0947 0.0409,0.13719 0.006,0.0116 -5.3e-4,-0.0455 0.01,-0.0377 0.0327,0.0245 0.0518,0.0636 0.072,0.0991 0.0658,0.11529 0.0773,0.24155 0.13921,0.35626 0.0878,0.0384 0.34471,0.51695 0.40006,0.62846 0.1632,0.28415 0.32348,0.55026 0.4855,0.83392 0.0258,0.0256 0.0515,0.0511 0.0773,0.0767 0,0 -3.17099,1.91958 -3.17099,1.91958 v 0 c -0.043,-0.0511 -0.086,-0.10219 -0.12895,-0.15328 -0.14125,-0.29643 -0.3257,-0.56217 -0.48854,-0.84707 -0.0921,-0.20683 -0.25972,-0.43578 -0.4021,-0.61482 -0.048,-0.0946 -0.0591,-0.20914 -0.11021,-0.29669 -0.045,-0.0771 -0.12065,-0.13321 -0.16579,-0.21019 -0.007,-0.0123 0.004,-0.0284 0.005,-0.0426 -0.1112,-0.13872 -0.23533,-0.27967 -0.31884,-0.44259 -0.2018,-0.32334 -0.42107,-0.63706 -0.65633,-0.93698 -0.50246,-0.74998 -1.06276,-1.45542 -1.5651,-2.20587 -1.05124,-1.49145 -2.20224,-2.91209 -3.22628,-4.42354 -1.08883,-1.52347 -2.24335,-2.99877 -3.455962,-4.42564 -0.709739,-0.80268 -1.405972,-1.61698 -2.130676,-2.40617 0,0 3.18875,-1.89236 3.18875,-1.89236 z"
       inkscape:connector-curvature="0" />
    <path
       style="opacity:1;fill:#a9f3f7;fill-opacity:0.99215686;fill-rule:evenodd;stroke:none;stroke-width:0.30899999;stroke-miterlimit:4;stroke-dasharray:none;stroke-opacity:1;paint-order:markers fill stroke"
       id="path993"
       d="m 93.504543,216.28562 c 0.497263,0.0104 0.994703,0.008 1.492051,0.008 0.628396,-0.004 1.25671,0.005 1.885048,0.0121 0.972113,-5e-5 1.94419,0.005 2.916311,0.007 1.096917,0.005 2.193837,0.003 3.290757,-0.002 0.57253,-0.10052 1.14911,-0.15662 1.70359,-0.34153 0.0128,-0.004 0.60273,-0.27662 0.62622,-0.28744 1.15483,-0.5119 2.91914,-1.62082 -2.29201,1.35953 -0.0746,0.0427 0.14856,-0.0867 0.22125,-0.13262 0.13108,-0.0828 0.34585,-0.23071 0.47497,-0.31869 0.34165,-0.20177 0.61526,-0.47159 0.87231,-0.76861 0.12569,-0.0976 0.16182,-0.22458 0.23302,-0.35924 0,0 3.43155,-1.44224 3.43155,-1.44224 v 0 c -0.23053,0.13774 -0.0921,0.17254 -0.24901,0.35914 -0.1131,0.12902 -0.23702,0.25345 -0.33992,0.39087 -0.0472,0.0631 -0.0745,0.14294 -0.1336,0.19503 -0.058,0.0511 -0.14663,0.0565 -0.20692,0.10498 -0.0695,0.0558 -0.11673,0.13464 -0.17509,0.20196 -0.26223,0.12703 -0.454,0.30845 -0.70463,0.45368 -1.32055,0.76518 -2.59043,1.64522 -4.00597,2.22789 -0.76135,0.30312 -1.56822,0.4462 -2.38616,0.48636 -1.09485,-0.005 -2.189686,-0.007 -3.284529,-0.002 -0.978561,0.002 -1.957078,0.007 -2.935629,0.007 -0.639458,0.007 -1.278895,0.0161 -1.918409,0.0121 -0.505007,-1.5e-4 -1.010097,-0.002 -1.515022,0.008 0,0 2.999822,-2.1795 2.999822,-2.1795 z"
       inkscape:connector-curvature="0" />
    <path
       style="opacity:1;fill:#a9f3f7;fill-opacity:0.99215686;fill-rule:evenodd;stroke:none;stroke-width:0.30899999;stroke-miterlimit:4;stroke-dasharray:none;stroke-opacity:1;paint-order:markers fill stroke"
       id="path995"
       d="m 110.23093,201.20733 c -0.0901,0.89521 0.064,1.76371 0.32023,2.61786 0.4017,1.30056 0.96147,2.53723 1.58169,3.74527 0.64556,1.27362 1.29628,2.53862 2.07256,3.73817 0.62059,0.88473 1.28135,1.74289 1.88751,2.63809 0.44681,0.63692 1.04844,1.13313 1.62591,1.64348 0.24901,0.2303 0.52618,0.44622 0.81223,0.62981 0.23974,0.15387 0.50303,0.2186 0.74502,0.37236 0.48062,0.17223 0.98849,0.19624 1.49334,0.2076 0.0731,3e-5 0.14627,-3e-5 0.2194,1e-4 0.0778,1.3e-4 0.15768,0.0187 0.23333,5.3e-4 0.084,-0.0201 0.73966,-0.44985 0.3736,-0.24597 -2.91434,1.6232 -3.80893,2.46417 -2.77311,1.51942 0.64936,-0.80804 0.8977,-1.85598 1.24812,-2.81177 0.96895,-2.95661 1.84313,-5.94446 2.67663,-8.94196 0.96264,-3.39939 1.52021,-6.88602 1.98481,-10.38178 0.38665,-2.97474 0.48658,-5.97486 0.53868,-8.97084 0.0554,-2.60608 0.0326,-5.20858 -0.2031,-7.80509 -0.25114,-2.12962 -0.78526,-4.20693 -1.36639,-6.26599 -0.26136,-1.12161 -0.77668,-2.13354 -1.30507,-3.14425 -0.12249,-0.29058 -0.30847,-0.53705 -0.48838,-0.79137 0,0 3.19513,-1.87352 3.19513,-1.87352 v 0 c 0.17465,0.27536 0.34775,0.55199 0.46648,0.85764 0.50563,1.05301 0.97482,2.11942 1.23383,3.26625 0.54364,2.09699 1.05702,4.20606 1.31694,6.36034 0.24544,2.61675 0.25344,5.23549 0.17529,7.86198 -0.0611,3.01283 -0.15049,6.03035 -0.55126,9.02111 -0.49077,3.51606 -1.08786,7.01773 -2.02047,10.44784 -0.16343,0.60573 -0.77047,2.86676 -0.95056,3.49092 -0.15221,0.52754 -0.33053,1.04741 -0.47814,1.57625 -0.35267,1.26345 -0.62253,2.55129 -1.0332,3.79903 -0.32054,0.97298 -0.52135,1.99235 -1.04268,2.88568 -1.05273,1.30162 -2.74441,2.39588 -4.43944,2.2978 -0.54873,-0.0345 -1.09517,-0.10662 -1.59262,-0.35882 -0.56152,-0.30393 -1.11944,-0.60813 -1.57182,-1.07275 -0.60524,-0.52237 -1.19904,-1.07336 -1.65347,-1.73634 -0.60779,-0.89639 -1.23154,-1.7825 -1.84839,-2.6723 -0.76783,-1.21785 -1.42892,-2.49084 -2.08332,-3.77238 -0.61858,-1.22779 -1.21635,-2.46873 -1.63503,-3.78232 -0.28964,-0.86493 -0.47943,-1.74985 -0.46812,-2.66681 0,0 3.30384,-1.68339 3.30384,-1.68339 z"
       inkscape:connector-curvature="0" />
    <path
       style="opacity:1;fill:#a9f3f7;fill-opacity:0.98823529;fill-rule:evenodd;stroke:none;stroke-width:0.30899999;stroke-miterlimit:4;stroke-dasharray:none;stroke-opacity:1;paint-order:markers fill stroke"
       id="path997"
       d="m 132.94516,196.96402 c -0.0577,1.05708 -0.0469,2.1168 -0.0532,3.17515 -0.003,1.31235 -0.003,2.62475 -2.6e-4,3.93711 0.03,1.00025 -0.0498,2.00775 0.11031,2.99891 0.16725,0.7163 0.46053,1.36578 0.83172,1.99516 0.28217,0.411 0.63836,0.77939 1.07444,1.02537 0.3989,0.2055 0.85276,0.244 1.27973,0.1234 0.91792,-0.21368 1.80639,-0.51945 2.70031,-0.81547 1.51899,-0.51668 3.01346,-1.10147 4.49911,-1.7069 1.42529,-0.60301 2.78971,-1.33886 4.13393,-2.10262 0.34856,-0.19804 1.39606,-0.78872 1.04351,-0.5979 -0.6768,0.36633 -1.34425,0.74965 -2.01638,1.12448 1.26507,-0.79495 2.52994,-1.62193 3.6512,-2.61468 0.1047,-0.10095 0.2094,-0.20189 0.3141,-0.30284 0,0 3.36189,-1.38673 3.36189,-1.38673 v 0 c -0.10771,0.10528 -0.21541,0.21056 -0.32312,0.31584 -1.11485,1.07564 -2.47394,1.89017 -3.76458,2.73229 -2.98881,1.76183 -5.94769,3.62682 -9.14702,4.99469 -1.52012,0.61896 -3.0441,1.23226 -4.60043,1.75537 -0.91878,0.30184 -1.83456,0.63001 -2.78807,0.80592 -0.51476,0.0226 -1.00989,-0.027 -1.44582,-0.32706 -0.45827,-0.31377 -0.84389,-0.72238 -1.14064,-1.19287 -0.38593,-0.67294 -0.70653,-1.35632 -0.87942,-2.1191 -0.17684,-1.01812 -0.0842,-2.04729 -0.0915,-3.07642 0.003,-1.31225 0.002,-2.62455 -2.7e-4,-3.9368 -0.006,-1.04024 0.005,-2.082 -0.0532,-3.12091 0,0 3.30384,-1.68339 3.30384,-1.68339 z"
       inkscape:connector-curvature="0" />
    <path
       style="opacity:1;fill:#a9f3f7;fill-opacity:0.98823529;fill-rule:evenodd;stroke:none;stroke-width:0.30899999;stroke-miterlimit:4;stroke-dasharray:none;stroke-opacity:1;paint-order:markers fill stroke"
       id="path999"
       d="m 129.70199,198.24558 c 0.54577,-0.52489 1.16217,-0.96429 1.72665,-1.46753 0.74123,-0.6337 1.41313,-1.34193 2.09135,-2.04106 0.71582,-0.80349 1.42851,-1.60884 2.16616,-2.39251 0.8858,-0.89631 1.84102,-1.71812 2.74148,-2.59899 0,0 3.33696,-1.37652 3.33696,-1.37652 v 0 c -0.90832,0.87609 -1.84981,1.7131 -2.75921,2.58908 -0.73375,0.77777 -1.45108,1.57015 -2.14055,2.38767 -0.67621,0.69593 -1.33198,1.4165 -2.06512,2.05344 -0.53834,0.50549 -1.1231,0.94429 -1.67637,1.42925 0,0 -3.42135,1.41717 -3.42135,1.41717 z"
       inkscape:connector-curvature="0" />
    <path
       style="opacity:1;fill:#a8f2f6;fill-opacity:0.99215686;fill-rule:evenodd;stroke:none;stroke-width:0.30899999;stroke-miterlimit:4;stroke-dasharray:none;stroke-opacity:1;paint-order:markers fill stroke"
       id="path1001"
       d="m 135.21583,201.31133 c 0.76836,0.0903 1.4871,-0.16543 2.22874,-0.31993 0.53226,-0.10141 1.06979,-0.14628 1.60879,-0.18608 0,0 -2.98649,2.19616 -2.98649,2.19616 v 0 c -0.51391,0.0204 -1.02481,0.10043 -1.52969,0.19434 -0.7674,0.15789 -1.52361,0.34241 -2.31533,0.29077 0,0 2.99398,-2.17526 2.99398,-2.17526 z"
       inkscape:connector-curvature="0" />
    <path
       style="opacity:1;fill:#a9f3f7;fill-opacity:0.98823529;fill-rule:evenodd;stroke:none;stroke-width:0.25856641;stroke-miterlimit:4;stroke-dasharray:none;stroke-opacity:1;paint-order:markers fill stroke"
       id="path1003"
       d="m 149.42906,187.72856 c -0.0446,1.0781 -0.0529,2.15785 -0.0537,3.23705 -0.0184,1.61653 -0.0104,3.23308 -0.006,4.8497 0.0272,1.19129 -0.0157,2.38566 0.0479,3.57546 -0.0121,0.76977 0.0499,1.52443 0.16472,2.28055 0.18073,0.70974 0.4902,1.35764 0.77414,2.01619 0.31703,0.69286 0.59692,1.41025 0.95027,2.0795 0.21611,0.47263 0.48011,0.89222 0.78524,1.28904 0.25342,0.3696 0.58564,0.64125 0.87209,0.96939 0.24386,0.26423 0.52334,0.4547 0.83397,0.59042 0.29449,0.095 0.60045,0.17851 0.90293,0.10229 0.89465,-0.47214 1.9697,-1.15637 -1.97304,1.32372 -0.0779,0.049 0.14315,-0.12132 0.21455,-0.18226 0.28607,-0.2442 0.15355,-0.11899 0.42955,-0.41582 0.61974,-0.70453 1.20036,-1.45292 1.8129,-2.16536 1.13576,-1.32364 2.256,-2.66594 3.36812,-4.01661 1.12132,-1.30973 2.17109,-2.6961 3.22841,-4.07451 0.63486,-0.80176 1.14249,-1.72006 1.72321,-2.57058 0.24765,-0.33957 0.44868,-0.71919 0.66526,-1.08509 0,0 2.61796,-1.31653 2.61796,-1.31653 v 0 c -0.24103,0.3669 -0.45184,0.75449 -0.69049,1.12309 -0.2768,0.36158 -0.49437,0.74604 -0.74293,1.13256 -0.32898,0.51155 -0.70401,0.98367 -1.04597,1.48303 -1.08592,1.37544 -2.13346,2.7913 -3.27496,4.10573 -1.08691,1.33619 -2.19306,2.65035 -3.28074,3.98542 -0.60937,0.68819 -1.15244,1.44578 -1.76671,2.12789 -0.18272,0.26411 -0.35404,0.46426 -0.60672,0.63833 -0.594,0.4092 -1.89202,1.71214 -2.9819,1.88645 -0.33942,-0.009 -0.6697,-0.0835 -0.98483,-0.23522 -0.324,-0.17964 -0.62781,-0.39294 -0.88032,-0.69502 -0.30271,-0.31881 -0.62187,-0.61958 -0.87854,-0.99241 -0.32735,-0.40563 -0.57289,-0.86369 -0.79705,-1.35485 -0.35605,-0.67869 -0.61277,-1.42255 -0.96086,-2.10783 -0.28465,-0.69094 -0.61513,-1.35919 -0.81311,-2.09334 -0.12959,-0.77132 -0.19011,-1.54306 -0.15934,-2.33085 -0.0535,-1.20688 0.0132,-2.41745 0.002,-3.62541 0.004,-1.61412 0.0121,-3.22816 -0.006,-4.84219 -7.7e-4,-1.05801 -0.008,-2.11668 -0.0536,-3.17354 0,0 2.56477,-1.51839 2.56477,-1.51839 z"
       inkscape:connector-curvature="0" />
    <path
       style="opacity:1;fill:#a9f3f7;fill-opacity:0.98431373;fill-rule:evenodd;stroke:none;stroke-width:0.30899999;stroke-miterlimit:4;stroke-dasharray:none;stroke-opacity:1;paint-order:markers fill stroke"
       id="path1013"
       d="m 148.86105,227.05363 c 0.0764,-0.63912 -0.085,-0.95255 -0.50029,-1.42227 -0.69425,-0.70451 -1.5273,-0.99681 -2.41983,-1.35067 -1.127,-0.45336 -2.33781,-0.69563 -3.53574,-0.88186 -1.55767,-0.20434 -3.1312,-0.2204 -4.69956,-0.24116 -1.6987,0.0138 -3.40549,-0.10913 -5.08956,0.15086 -1.29801,0.22115 -2.55855,0.61275 -3.68763,1.2937 -1.08808,0.59497 -3.42864,1.85465 1.47579,-0.8576 0.19188,-0.10611 -0.37321,0.23032 -0.55856,0.34748 -0.68382,0.43228 -0.46535,0.29006 -1.13052,0.77516 -1.02994,0.77221 -1.98851,1.63158 -2.92636,2.51149 -0.84818,0.8157 -1.53232,1.78155 -2.16697,2.76718 -0.80029,1.31485 -1.57487,2.64439 -2.34273,3.97835 -0.89188,1.55109 -1.79624,3.09469 -2.67099,4.65553 -0.79245,1.55207 -1.59323,3.09997 -2.38188,4.65398 -0.60563,1.24971 -1.3391,2.42953 -2.01702,3.63978 -0.76211,1.31896 -1.58985,2.59565 -2.47547,3.83449 -1.07027,1.5453 -2.3683,2.90678 -3.70941,4.21607 -1.97588,1.91304 -4.21385,3.51031 -6.50933,5.01107 -2.894747,1.87235 -5.871101,3.63877 -8.978164,5.13762 -1.581999,0.76315 -1.844556,0.8427 -3.487922,1.52013 -2.317782,0.94932 -4.721918,1.70371 -7.165647,2.2555 -1.301242,0.29382 -2.831955,0.55935 -4.144306,0.79897 -3.806008,0.674 -7.645297,1.09834 -11.504094,1.291 -1.776055,0.0887 -3.561752,0.13455 -5.324748,-0.1504 -1.670939,-0.27008 -3.253856,-0.81201 -4.835924,-1.39065 -2.808684,-1.15014 -5.320191,-2.85756 -7.746381,-4.65408 -1.566791,-1.08785 -2.984,-2.36183 -4.132593,-3.88555 -0.72063,-1.05228 -1.238287,-2.21795 -1.684869,-3.40744 -0.277612,-0.57388 -0.495406,-1.17307 -0.641517,-1.79318 0,0 3.24408,-1.73629 3.24408,-1.73629 v 0 c 0.105841,0.6156 0.285853,1.21369 0.560567,1.77677 0.40762,1.16907 0.893625,2.31081 1.5904,3.341 1.100746,1.50535 2.451569,2.78166 3.965051,3.87259 2.348712,1.83727 4.853255,3.48481 7.629446,4.60905 1.558838,0.57183 3.108436,1.09467 4.758989,1.34288 1.750578,0.26326 3.521128,0.20208 5.281887,0.1178 3.829971,-0.21603 7.647297,-0.59116 11.424031,-1.28365 3.849439,-0.70787 7.678759,-1.59325 11.294094,-3.13041 1.615787,-0.68405 1.938303,-0.79378 3.492378,-1.55475 0.554885,-0.27171 1.04185,-0.73686 1.650395,-0.84361 0.479877,-0.0842 -1.679327,0.98496 -1.241211,0.77183 0.557152,-0.27104 2.322137,-1.4351 2.854171,-1.77942 2.265427,-1.47437 4.488177,-3.02517 6.436927,-4.91094 1.32456,-1.27882 2.60044,-2.6183 3.66087,-4.12909 0.89084,-1.21786 1.71494,-2.48004 2.46872,-3.78769 0.68745,-1.21022 1.40599,-2.40196 2.04922,-3.63703 0.7935,-1.5638 1.63783,-3.10172 2.40424,-4.67958 0.8696,-1.55965 1.76613,-3.10276 2.65215,-4.65318 0.77103,-1.32059 1.50202,-2.66403 2.30078,-3.96865 0.59177,-1.02331 1.29228,-1.99324 2.1118,-2.84731 0.94064,-0.89498 1.90573,-1.76584 2.93625,-2.55727 0.53444,-0.42175 1.07619,-0.79725 1.66259,-1.14422 1.54822,-0.91609 3.08418,-1.85895 4.67217,-2.7066 1.16346,-0.61144 2.43501,-0.97445 3.73594,-1.15813 1.6953,-0.18582 3.4014,-0.0853 5.10401,-0.0983 1.5893,0.0188 3.18505,0.0334 4.76128,0.26093 1.22553,0.20145 2.46086,0.44224 3.61117,0.92408 0.92265,0.35904 1.84557,0.75108 2.55247,1.4705 0.42857,0.48729 0.72322,0.96058 0.6712,1.63178 0,0 -3.30384,1.68339 -3.30384,1.68339 z"
       inkscape:connector-curvature="0" />
  </g>
</svg>
